<mxfile host="65bd71144e">
    <diagram id="q354sB6O9fcLH6xUbpZV" name="Page-1">
        <mxGraphModel dx="1487" dy="352" grid="1" gridSize="7" guides="1" tooltips="1" connect="1" arrows="1" fold="1" page="1" pageScale="1" pageWidth="850" pageHeight="1100" background="none" math="0" shadow="0">
            <root>
                <mxCell id="0"/>
                <mxCell id="1" parent="0"/>
                <mxCell id="18" value="" style="edgeStyle=none;html=1;entryX=0;entryY=0;entryDx=0;entryDy=0;exitX=0.75;exitY=1;exitDx=0;exitDy=0;" parent="1" source="8" target="17" edge="1">
                    <mxGeometry relative="1" as="geometry"/>
                </mxCell>
                <mxCell id="19" value="" style="edgeStyle=none;html=1;exitX=0.5;exitY=1;exitDx=0;exitDy=0;startArrow=none;" parent="1" source="8" target="14" edge="1">
                    <mxGeometry relative="1" as="geometry">
                        <mxPoint x="73.5" y="303" as="sourcePoint"/>
                    </mxGeometry>
                </mxCell>
                <mxCell id="20" style="edgeStyle=none;html=1;entryX=1;entryY=0;entryDx=0;entryDy=0;" parent="1" source="8" target="12" edge="1">
                    <mxGeometry relative="1" as="geometry"/>
                </mxCell>
                <mxCell id="8" value="updatePoint&lt;br&gt;addPoint&lt;br&gt;deletePoint&lt;br&gt;adaptToClient" style="rounded=0;whiteSpace=wrap;html=1;arcSize=15;" parent="1" vertex="1">
                    <mxGeometry x="10" y="182" width="85" height="77" as="geometry"/>
                </mxCell>
                <mxCell id="5" value="updatePoint&lt;br&gt;addPoint&lt;br&gt;deletePoint&lt;br&gt;adaptToServer" style="rounded=0;whiteSpace=wrap;html=1;arcSize=15;" parent="1" vertex="1">
                    <mxGeometry x="149.5" y="167" width="85" height="63" as="geometry"/>
                </mxCell>
                <mxCell id="4" value="" style="edgeStyle=none;html=1;rounded=0;" parent="1" target="3" edge="1">
                    <mxGeometry relative="1" as="geometry">
                        <mxPoint x="133.85873994284862" y="139.6493005831926" as="sourcePoint"/>
                    </mxGeometry>
                </mxCell>
                <mxCell id="2" value="&lt;b&gt;&lt;font color=&quot;#ffffff&quot;&gt;PointsModel(pointApiService)&lt;/font&gt;&lt;/b&gt;" style="ellipse;whiteSpace=wrap;html=1;rounded=0;shadow=1;fillColor=#dae8fc;strokeColor=#6c8ebf;gradientColor=#0000FF;gradientDirection=north;" parent="1" vertex="1">
                    <mxGeometry x="-49" y="112" width="189" height="77" as="geometry"/>
                </mxCell>
                <mxCell id="3" value="PointsApiService" style="ellipse;whiteSpace=wrap;html=1;rounded=0;" parent="1" vertex="1">
                    <mxGeometry x="143" y="121" width="98" height="49" as="geometry"/>
                </mxCell>
                <mxCell id="51" value="" style="edgeStyle=none;html=1;fontSize=10;fontColor=#FF0000;fontStyle=1" parent="1" source="12" edge="1">
                    <mxGeometry relative="1" as="geometry">
                        <mxPoint x="-126" y="252" as="targetPoint"/>
                        <Array as="points"/>
                    </mxGeometry>
                </mxCell>
                <mxCell id="12" value="RoutePresenter" style="ellipse;whiteSpace=wrap;html=1;rounded=0;" parent="1" vertex="1">
                    <mxGeometry x="-91" y="315" width="98" height="49" as="geometry"/>
                </mxCell>
                <mxCell id="55" style="edgeStyle=none;html=1;fontSize=10;fontColor=#FF0000;" parent="1" source="14" edge="1">
                    <mxGeometry relative="1" as="geometry">
                        <mxPoint x="-126" y="238" as="targetPoint"/>
                    </mxGeometry>
                </mxCell>
                <mxCell id="14" value="FilterPresenter" style="ellipse;whiteSpace=wrap;html=1;rounded=0;" parent="1" vertex="1">
                    <mxGeometry x="49" y="315" width="98" height="49" as="geometry"/>
                </mxCell>
                <mxCell id="15" value="&lt;b&gt;вызывается&lt;/b&gt;" style="text;strokeColor=#82b366;align=center;fillColor=#d5e8d4;html=1;verticalAlign=middle;whiteSpace=wrap;rounded=0;" parent="1" vertex="1">
                    <mxGeometry x="-14" y="98" width="103.5" height="30" as="geometry"/>
                </mxCell>
                <mxCell id="16" value="&lt;b&gt;с параметром&lt;/b&gt;" style="text;strokeColor=none;align=center;fillColor=none;html=1;verticalAlign=middle;whiteSpace=wrap;rounded=0;" parent="1" vertex="1">
                    <mxGeometry x="144.25" y="98" width="103.5" height="30" as="geometry"/>
                </mxCell>
                <mxCell id="57" style="edgeStyle=none;html=1;entryX=1;entryY=0.75;entryDx=0;entryDy=0;fontSize=10;fontColor=#000000;" parent="1" source="17" target="48" edge="1">
                    <mxGeometry relative="1" as="geometry"/>
                </mxCell>
                <mxCell id="17" value="TripInfoPresenter" style="ellipse;whiteSpace=wrap;html=1;rounded=0;" parent="1" vertex="1">
                    <mxGeometry x="254" y="315" width="98" height="49" as="geometry"/>
                </mxCell>
                <mxCell id="24" value="&lt;span style=&quot;color: rgb(55, 65, 81); font-family: Söhne, ui-sans-serif, system-ui, -apple-system, &amp;quot;Segoe UI&amp;quot;, Roboto, Ubuntu, Cantarell, &amp;quot;Noto Sans&amp;quot;, sans-serif, &amp;quot;Helvetica Neue&amp;quot;, Arial, &amp;quot;Apple Color Emoji&amp;quot;, &amp;quot;Segoe UI Emoji&amp;quot;, &amp;quot;Segoe UI Symbol&amp;quot;, &amp;quot;Noto Color Emoji&amp;quot;; text-align: left; background-color: rgb(247, 247, 248);&quot;&gt;уведомления&lt;/span&gt;&lt;br style=&quot;border-color: var(--border-color); color: rgb(55, 65, 81); font-family: Söhne, ui-sans-serif, system-ui, -apple-system, &amp;quot;Segoe UI&amp;quot;, Roboto, Ubuntu, Cantarell, &amp;quot;Noto Sans&amp;quot;, sans-serif, &amp;quot;Helvetica Neue&amp;quot;, Arial, &amp;quot;Apple Color Emoji&amp;quot;, &amp;quot;Segoe UI Emoji&amp;quot;, &amp;quot;Segoe UI Symbol&amp;quot;, &amp;quot;Noto Color Emoji&amp;quot;; text-align: left; background-color: rgb(247, 247, 248);&quot;&gt;&lt;span style=&quot;color: rgb(55, 65, 81); font-family: Söhne, ui-sans-serif, system-ui, -apple-system, &amp;quot;Segoe UI&amp;quot;, Roboto, Ubuntu, Cantarell, &amp;quot;Noto Sans&amp;quot;, sans-serif, &amp;quot;Helvetica Neue&amp;quot;, Arial, &amp;quot;Apple Color Emoji&amp;quot;, &amp;quot;Segoe UI Emoji&amp;quot;, &amp;quot;Segoe UI Symbol&amp;quot;, &amp;quot;Noto Color Emoji&amp;quot;; text-align: left; background-color: rgb(247, 247, 248);&quot;&gt;презентера о любых&lt;/span&gt;&lt;br style=&quot;border-color: var(--border-color); color: rgb(55, 65, 81); font-family: Söhne, ui-sans-serif, system-ui, -apple-system, &amp;quot;Segoe UI&amp;quot;, Roboto, Ubuntu, Cantarell, &amp;quot;Noto Sans&amp;quot;, sans-serif, &amp;quot;Helvetica Neue&amp;quot;, Arial, &amp;quot;Apple Color Emoji&amp;quot;, &amp;quot;Segoe UI Emoji&amp;quot;, &amp;quot;Segoe UI Symbol&amp;quot;, &amp;quot;Noto Color Emoji&amp;quot;; text-align: left; background-color: rgb(247, 247, 248);&quot;&gt;&lt;span style=&quot;color: rgb(55, 65, 81); font-family: Söhne, ui-sans-serif, system-ui, -apple-system, &amp;quot;Segoe UI&amp;quot;, Roboto, Ubuntu, Cantarell, &amp;quot;Noto Sans&amp;quot;, sans-serif, &amp;quot;Helvetica Neue&amp;quot;, Arial, &amp;quot;Apple Color Emoji&amp;quot;, &amp;quot;Segoe UI Emoji&amp;quot;, &amp;quot;Segoe UI Symbol&amp;quot;, &amp;quot;Noto Color Emoji&amp;quot;; text-align: left; background-color: rgb(247, 247, 248);&quot;&gt;изменениях в данных&lt;br&gt;(бизнес-логика)&lt;br&gt;&lt;/span&gt;" style="text;strokeColor=none;align=center;fillColor=none;html=1;verticalAlign=middle;whiteSpace=wrap;rounded=0;fontSize=12;" parent="1" vertex="1">
                    <mxGeometry x="-128.75" y="783" width="133" height="30" as="geometry"/>
                </mxCell>
                <mxCell id="25" value="&lt;div style=&quot;text-align: left;&quot;&gt;&lt;font face=&quot;Söhne, ui-sans-serif, system-ui, -apple-system, Segoe UI, Roboto, Ubuntu, Cantarell, Noto Sans, sans-serif, Helvetica Neue, Arial, Apple Color Emoji, Segoe UI Emoji, Segoe UI Symbol, Noto Color Emoji&quot; color=&quot;#374151&quot;&gt;&lt;span style=&quot;background-color: rgb(247, 247, 248);&quot;&gt;используется в&lt;/span&gt;&lt;/font&gt;&lt;/div&gt;" style="text;strokeColor=#82b366;align=center;fillColor=#d5e8d4;html=1;verticalAlign=middle;whiteSpace=wrap;rounded=0;fontSize=12;" parent="1" vertex="1">
                    <mxGeometry x="0.75" y="273" width="133" height="30" as="geometry"/>
                </mxCell>
                <mxCell id="29" value="&lt;span style=&quot;color: rgb(55, 65, 81); font-family: Söhne, ui-sans-serif, system-ui, -apple-system, &amp;quot;Segoe UI&amp;quot;, Roboto, Ubuntu, Cantarell, &amp;quot;Noto Sans&amp;quot;, sans-serif, &amp;quot;Helvetica Neue&amp;quot;, Arial, &amp;quot;Apple Color Emoji&amp;quot;, &amp;quot;Segoe UI Emoji&amp;quot;, &amp;quot;Segoe UI Symbol&amp;quot;, &amp;quot;Noto Color Emoji&amp;quot;; text-align: left; background-color: rgb(247, 247, 248);&quot;&gt;хранения данных о точках маршрута&lt;/span&gt;" style="text;strokeColor=none;align=center;fillColor=none;html=1;verticalAlign=middle;whiteSpace=wrap;rounded=0;fontSize=12;" parent="1" vertex="1">
                    <mxGeometry x="-108" y="387" width="133" height="30" as="geometry"/>
                </mxCell>
                <mxCell id="31" value="&lt;span style=&quot;color: rgb(55, 65, 81); font-family: Söhne, ui-sans-serif, system-ui, -apple-system, &amp;quot;Segoe UI&amp;quot;, Roboto, Ubuntu, Cantarell, &amp;quot;Noto Sans&amp;quot;, sans-serif, &amp;quot;Helvetica Neue&amp;quot;, Arial, &amp;quot;Apple Color Emoji&amp;quot;, &amp;quot;Segoe UI Emoji&amp;quot;, &amp;quot;Segoe UI Symbol&amp;quot;, &amp;quot;Noto Color Emoji&amp;quot;; text-align: left; background-color: rgb(247, 247, 248);&quot;&gt;управления данными&lt;br&gt;(бизнес-логика)&lt;br&gt;&lt;/span&gt;" style="text;strokeColor=none;align=center;fillColor=none;html=1;verticalAlign=middle;whiteSpace=wrap;rounded=0;fontSize=12;" parent="1" vertex="1">
                    <mxGeometry x="-126.75" y="679" width="133" height="30" as="geometry"/>
                </mxCell>
                <mxCell id="33" value="updatePoint&lt;br&gt;addPoint&lt;br&gt;deletePoint" style="rounded=0;whiteSpace=wrap;html=1;arcSize=15;fillColor=#fff2cc;strokeColor=#d6b656;" parent="1" vertex="1">
                    <mxGeometry x="-106.75" y="709" width="85" height="49" as="geometry"/>
                </mxCell>
                <mxCell id="35" value="&lt;font color=&quot;#000000&quot;&gt;для&lt;/font&gt;" style="text;strokeColor=none;align=center;fillColor=none;html=1;verticalAlign=middle;whiteSpace=wrap;rounded=0;shadow=1;fontSize=12;fontColor=#FFFFFF;" parent="1" vertex="1">
                    <mxGeometry x="-70.75" y="357" width="60" height="30" as="geometry"/>
                </mxCell>
                <mxCell id="36" value="&lt;font color=&quot;#000000&quot;&gt;для&lt;/font&gt;" style="text;strokeColor=none;align=center;fillColor=none;html=1;verticalAlign=middle;whiteSpace=wrap;rounded=0;shadow=1;fontSize=12;fontColor=#FFFFFF;" parent="1" vertex="1">
                    <mxGeometry x="68" y="357" width="37" height="30" as="geometry"/>
                </mxCell>
                <mxCell id="37" value="&lt;font color=&quot;#000000&quot;&gt;для&lt;/font&gt;" style="text;strokeColor=none;align=center;fillColor=none;html=1;verticalAlign=middle;whiteSpace=wrap;rounded=0;shadow=1;fontSize=12;fontColor=#FFFFFF;" parent="1" vertex="1">
                    <mxGeometry x="273" y="357" width="60" height="30" as="geometry"/>
                </mxCell>
                <mxCell id="38" value="AddObserver" style="rounded=0;whiteSpace=wrap;html=1;arcSize=15;fillColor=#fff2cc;strokeColor=#d6b656;" parent="1" vertex="1">
                    <mxGeometry x="-100.75" y="831" width="77" height="21" as="geometry"/>
                </mxCell>
                <mxCell id="40" value="В геттере" style="rounded=0;whiteSpace=wrap;html=1;arcSize=15;fillColor=#fff2cc;strokeColor=#d6b656;" parent="1" vertex="1">
                    <mxGeometry x="-91" y="417" width="77" height="21" as="geometry"/>
                </mxCell>
                <mxCell id="41" value="&lt;div style=&quot;text-align: left;&quot;&gt;&lt;font face=&quot;Söhne, ui-sans-serif, system-ui, -apple-system, Segoe UI, Roboto, Ubuntu, Cantarell, Noto Sans, sans-serif, Helvetica Neue, Arial, Apple Color Emoji, Segoe UI Emoji, Segoe UI Symbol, Noto Color Emoji&quot; color=&quot;#374151&quot;&gt;&lt;span style=&quot;background-color: rgb(247, 247, 248);&quot;&gt;предоставления данных (хранение и обработка)&lt;/span&gt;&lt;/font&gt;&lt;/div&gt;" style="text;strokeColor=none;align=center;fillColor=none;html=1;verticalAlign=middle;whiteSpace=wrap;rounded=0;fontSize=12;" parent="1" vertex="1">
                    <mxGeometry x="-116" y="450" width="133" height="30" as="geometry"/>
                </mxCell>
                <mxCell id="42" value="const points = this.#pointsModel.points;" style="rounded=0;whiteSpace=wrap;html=1;arcSize=15;fillColor=#fff2cc;strokeColor=#d6b656;fontSize=11;" parent="1" vertex="1">
                    <mxGeometry x="-119" y="487" width="129.5" height="33" as="geometry"/>
                </mxCell>
                <mxCell id="43" value="&lt;div style=&quot;text-align: left;&quot;&gt;&lt;font face=&quot;Söhne, ui-sans-serif, system-ui, -apple-system, Segoe UI, Roboto, Ubuntu, Cantarell, Noto Sans, sans-serif, Helvetica Neue, Arial, Apple Color Emoji, Segoe UI Emoji, Segoe UI Symbol, Noto Color Emoji&quot; color=&quot;#374151&quot;&gt;&lt;span style=&quot;background-color: rgb(247, 247, 248);&quot;&gt;предоставления связанных данных&lt;/span&gt;&lt;/font&gt;&lt;/div&gt;" style="text;strokeColor=none;align=center;fillColor=none;html=1;verticalAlign=middle;whiteSpace=wrap;rounded=0;fontSize=12;" parent="1" vertex="1">
                    <mxGeometry x="-123.25" y="528" width="133" height="30" as="geometry"/>
                </mxCell>
                <mxCell id="44" value="&lt;div style=&quot;font-size: 10px;&quot;&gt;get offers() {&lt;/div&gt;&lt;div style=&quot;font-size: 10px;&quot;&gt;&amp;nbsp; return this.#pointsModel.offers;&lt;/div&gt;&lt;div style=&quot;font-size: 10px;&quot;&gt;}&lt;/div&gt;" style="rounded=0;whiteSpace=wrap;html=1;arcSize=15;fillColor=#fff2cc;strokeColor=#d6b656;fontSize=10;" parent="1" vertex="1">
                    <mxGeometry x="-125.25" y="559" width="126" height="49" as="geometry"/>
                </mxCell>
                <mxCell id="45" value="&lt;div style=&quot;font-size: 10px;&quot;&gt;get destinations() {&lt;/div&gt;&lt;div style=&quot;font-size: 10px;&quot;&gt;&amp;nbsp; return this.#pointsModel.destinations;&lt;/div&gt;&lt;div style=&quot;font-size: 10px;&quot;&gt;}&lt;/div&gt;" style="rounded=0;whiteSpace=wrap;html=1;arcSize=15;fillColor=#fff2cc;strokeColor=#d6b656;fontSize=10;" parent="1" vertex="1">
                    <mxGeometry x="-154" y="607" width="154" height="56" as="geometry"/>
                </mxCell>
                <mxCell id="46" value="&lt;b&gt;в&lt;/b&gt;" style="text;strokeColor=none;align=center;fillColor=none;html=1;verticalAlign=middle;whiteSpace=wrap;rounded=0;" parent="1" vertex="1">
                    <mxGeometry x="313" y="91" width="42" height="30" as="geometry"/>
                </mxCell>
                <mxCell id="47" value="main.js" style="ellipse;whiteSpace=wrap;html=1;rounded=0;" parent="1" vertex="1">
                    <mxGeometry x="285" y="118" width="98" height="49" as="geometry"/>
                </mxCell>
                <mxCell id="54" style="edgeStyle=none;html=1;exitX=0.75;exitY=0;exitDx=0;exitDy=0;entryX=0.092;entryY=0.818;entryDx=0;entryDy=0;entryPerimeter=0;fontSize=10;fontColor=#000000;" parent="1" source="48" target="2" edge="1">
                    <mxGeometry relative="1" as="geometry"/>
                </mxCell>
                <mxCell id="48" value="вызывается с параметром экземпляром poinsModel&lt;br&gt;передаваемом&amp;nbsp;&lt;br&gt;в main'e" style="text;strokeColor=none;align=center;fillColor=none;html=1;verticalAlign=middle;whiteSpace=wrap;rounded=0;shadow=1;fontSize=10;fontColor=#000000;labelBackgroundColor=#CCFFE6;" parent="1" vertex="1">
                    <mxGeometry x="-186.75" y="196" width="60" height="30" as="geometry"/>
                </mxCell>
                <mxCell id="59" value="&lt;span style=&quot;color: rgb(55, 65, 81); font-family: Söhne, ui-sans-serif, system-ui, -apple-system, &amp;quot;Segoe UI&amp;quot;, Roboto, Ubuntu, Cantarell, &amp;quot;Noto Sans&amp;quot;, sans-serif, &amp;quot;Helvetica Neue&amp;quot;, Arial, &amp;quot;Apple Color Emoji&amp;quot;, &amp;quot;Segoe UI Emoji&amp;quot;, &amp;quot;Segoe UI Symbol&amp;quot;, &amp;quot;Noto Color Emoji&amp;quot;; text-align: left; background-color: rgb(247, 247, 248);&quot;&gt;извлечения данных&lt;br&gt;точках маршрута&lt;/span&gt;" style="text;strokeColor=none;align=center;fillColor=none;html=1;verticalAlign=middle;whiteSpace=wrap;rounded=0;fontSize=12;" parent="1" vertex="1">
                    <mxGeometry x="56" y="387" width="112" height="30" as="geometry"/>
                </mxCell>
                <mxCell id="60" value="&lt;span style=&quot;text-align: left; background-color: rgb(247, 247, 248);&quot;&gt;&lt;font face=&quot;Söhne, ui-sans-serif, system-ui, -apple-system, Segoe UI, Roboto, Ubuntu, Cantarell, Noto Sans, sans-serif, Helvetica Neue, Arial, Apple Color Emoji, Segoe UI Emoji, Segoe UI Symbol, Noto Color Emoji&quot; color=&quot;#374151&quot;&gt;(бизнес-логика)&lt;/font&gt;&lt;br&gt;&lt;font face=&quot;Söhne, ui-sans-serif, system-ui, -apple-system, Segoe UI, Roboto, Ubuntu, Cantarell, Noto Sans, sans-serif, Helvetica Neue, Arial, Apple Color Emoji, Segoe UI Emoji, Segoe UI Symbol, Noto Color Emoji&quot; color=&quot;#374151&quot;&gt;реагирует на изменение в модели, вызывая this.init(), чтобы обновить представление.&lt;/font&gt;&lt;br&gt;&lt;/span&gt;" style="text;strokeColor=none;align=center;fillColor=none;html=1;verticalAlign=middle;whiteSpace=wrap;rounded=0;fontSize=12;" parent="1" vertex="1">
                    <mxGeometry x="57.75" y="795" width="133" height="30" as="geometry"/>
                </mxCell>
                <mxCell id="61" value="&lt;div&gt;#handleModelEvent = () =&amp;gt; {&lt;/div&gt;&lt;div&gt;&amp;nbsp; this.init();&lt;/div&gt;&lt;div&gt;};&lt;/div&gt;" style="rounded=0;whiteSpace=wrap;html=1;arcSize=15;fillColor=#fff2cc;strokeColor=#d6b656;" parent="1" vertex="1">
                    <mxGeometry x="40" y="859" width="168" height="55" as="geometry"/>
                </mxCell>
                <mxCell id="62" value="const points = this.#pointsModel.points;" style="rounded=0;whiteSpace=wrap;html=1;arcSize=15;fillColor=#fff2cc;strokeColor=#d6b656;" parent="1" vertex="1">
                    <mxGeometry x="57.75" y="417" width="147" height="31" as="geometry"/>
                </mxCell>
                <mxCell id="63" value="&lt;div style=&quot;text-align: left;&quot;&gt;&lt;font face=&quot;Söhne, ui-sans-serif, system-ui, -apple-system, Segoe UI, Roboto, Ubuntu, Cantarell, Noto Sans, sans-serif, Helvetica Neue, Arial, Apple Color Emoji, Segoe UI Emoji, Segoe UI Symbol, Noto Color Emoji&quot; color=&quot;#374151&quot;&gt;&lt;span style=&quot;background-color: rgb(247, 247, 248);&quot;&gt;(хранение и обработка)&lt;br&gt;генерация фильтров на основе данных от модели&lt;/span&gt;&lt;/font&gt;&lt;/div&gt;" style="text;strokeColor=none;align=center;fillColor=none;html=1;verticalAlign=middle;whiteSpace=wrap;rounded=0;fontSize=12;" parent="1" vertex="1">
                    <mxGeometry x="64.75" y="515" width="133" height="30" as="geometry"/>
                </mxCell>
                <mxCell id="64" value="&lt;div&gt;get filters() {&lt;/div&gt;&lt;div&gt;&amp;nbsp; const points = this.#pointsModel.points;&lt;/div&gt;&lt;div&gt;&lt;br&gt;&lt;/div&gt;&lt;div&gt;&amp;nbsp; return [&lt;/div&gt;&lt;div&gt;&amp;nbsp; &amp;nbsp; {&lt;/div&gt;&lt;div&gt;&amp;nbsp; &amp;nbsp; &amp;nbsp; type: FilterType.EVERYTHING,&lt;/div&gt;&lt;div&gt;&amp;nbsp; &amp;nbsp; &amp;nbsp; name: 'everything',&lt;/div&gt;&lt;div&gt;&amp;nbsp; &amp;nbsp; &amp;nbsp; count: Filter[FilterType.EVERYTHING](points).length,&lt;/div&gt;&lt;div&gt;&amp;nbsp; &amp;nbsp; }&lt;/div&gt;&lt;div&gt;]&lt;/div&gt;" style="rounded=0;whiteSpace=wrap;html=1;arcSize=15;fillColor=#fff2cc;strokeColor=#d6b656;fontSize=11;" parent="1" vertex="1">
                    <mxGeometry x="48.5" y="564" width="165.5" height="191" as="geometry"/>
                </mxCell>
                <mxCell id="68" value="&lt;span style=&quot;color: rgb(55, 65, 81); font-family: Söhne, ui-sans-serif, system-ui, -apple-system, &amp;quot;Segoe UI&amp;quot;, Roboto, Ubuntu, Cantarell, &amp;quot;Noto Sans&amp;quot;, sans-serif, &amp;quot;Helvetica Neue&amp;quot;, Arial, &amp;quot;Apple Color Emoji&amp;quot;, &amp;quot;Segoe UI Emoji&amp;quot;, &amp;quot;Segoe UI Symbol&amp;quot;, &amp;quot;Noto Color Emoji&amp;quot;; text-align: left; background-color: rgb(247, 247, 248);&quot;&gt;уведомления&lt;/span&gt;&lt;br style=&quot;border-color: var(--border-color); color: rgb(55, 65, 81); font-family: Söhne, ui-sans-serif, system-ui, -apple-system, &amp;quot;Segoe UI&amp;quot;, Roboto, Ubuntu, Cantarell, &amp;quot;Noto Sans&amp;quot;, sans-serif, &amp;quot;Helvetica Neue&amp;quot;, Arial, &amp;quot;Apple Color Emoji&amp;quot;, &amp;quot;Segoe UI Emoji&amp;quot;, &amp;quot;Segoe UI Symbol&amp;quot;, &amp;quot;Noto Color Emoji&amp;quot;; text-align: left; background-color: rgb(247, 247, 248);&quot;&gt;&lt;span style=&quot;color: rgb(55, 65, 81); font-family: Söhne, ui-sans-serif, system-ui, -apple-system, &amp;quot;Segoe UI&amp;quot;, Roboto, Ubuntu, Cantarell, &amp;quot;Noto Sans&amp;quot;, sans-serif, &amp;quot;Helvetica Neue&amp;quot;, Arial, &amp;quot;Apple Color Emoji&amp;quot;, &amp;quot;Segoe UI Emoji&amp;quot;, &amp;quot;Segoe UI Symbol&amp;quot;, &amp;quot;Noto Color Emoji&amp;quot;; text-align: left; background-color: rgb(247, 247, 248);&quot;&gt;презентера о любых&lt;/span&gt;&lt;br style=&quot;border-color: var(--border-color); color: rgb(55, 65, 81); font-family: Söhne, ui-sans-serif, system-ui, -apple-system, &amp;quot;Segoe UI&amp;quot;, Roboto, Ubuntu, Cantarell, &amp;quot;Noto Sans&amp;quot;, sans-serif, &amp;quot;Helvetica Neue&amp;quot;, Arial, &amp;quot;Apple Color Emoji&amp;quot;, &amp;quot;Segoe UI Emoji&amp;quot;, &amp;quot;Segoe UI Symbol&amp;quot;, &amp;quot;Noto Color Emoji&amp;quot;; text-align: left; background-color: rgb(247, 247, 248);&quot;&gt;&lt;span style=&quot;color: rgb(55, 65, 81); font-family: Söhne, ui-sans-serif, system-ui, -apple-system, &amp;quot;Segoe UI&amp;quot;, Roboto, Ubuntu, Cantarell, &amp;quot;Noto Sans&amp;quot;, sans-serif, &amp;quot;Helvetica Neue&amp;quot;, Arial, &amp;quot;Apple Color Emoji&amp;quot;, &amp;quot;Segoe UI Emoji&amp;quot;, &amp;quot;Segoe UI Symbol&amp;quot;, &amp;quot;Noto Color Emoji&amp;quot;; text-align: left; background-color: rgb(247, 247, 248);&quot;&gt;изменениях в данных&lt;br&gt;(бизнес-логика)&lt;br&gt;&lt;/span&gt;" style="text;strokeColor=none;align=center;fillColor=none;html=1;verticalAlign=middle;whiteSpace=wrap;rounded=0;fontSize=12;" parent="1" vertex="1">
                    <mxGeometry x="57.75" y="942" width="133" height="30" as="geometry"/>
                </mxCell>
                <mxCell id="69" value="AddObserver" style="rounded=0;whiteSpace=wrap;html=1;arcSize=15;fillColor=#fff2cc;strokeColor=#d6b656;" parent="1" vertex="1">
                    <mxGeometry x="81" y="1050" width="77" height="21" as="geometry"/>
                </mxCell>
                <mxCell id="70" value="&lt;span style=&quot;color: rgb(55, 65, 81); font-family: Söhne, ui-sans-serif, system-ui, -apple-system, &amp;quot;Segoe UI&amp;quot;, Roboto, Ubuntu, Cantarell, &amp;quot;Noto Sans&amp;quot;, sans-serif, &amp;quot;Helvetica Neue&amp;quot;, Arial, &amp;quot;Apple Color Emoji&amp;quot;, &amp;quot;Segoe UI Emoji&amp;quot;, &amp;quot;Segoe UI Symbol&amp;quot;, &amp;quot;Noto Color Emoji&amp;quot;; text-align: left; background-color: rgb(247, 247, 248);&quot;&gt;извлечения данных&lt;br&gt;точках маршрута&lt;/span&gt;" style="text;strokeColor=none;align=center;fillColor=none;html=1;verticalAlign=middle;whiteSpace=wrap;rounded=0;fontSize=12;" parent="1" vertex="1">
                    <mxGeometry x="254" y="385" width="112" height="30" as="geometry"/>
                </mxCell>
                <mxCell id="71" value="&lt;div&gt;get points () {&lt;/div&gt;&lt;div&gt;&amp;nbsp; return this.#pointsModel.&lt;/div&gt;&lt;div&gt;points.sort&lt;/div&gt;&lt;div&gt;(sortPointsByDate);&lt;/div&gt;&lt;div&gt;}&lt;/div&gt;" style="rounded=0;whiteSpace=wrap;html=1;arcSize=15;fillColor=#fff2cc;strokeColor=#d6b656;" parent="1" vertex="1">
                    <mxGeometry x="254" y="417" width="143" height="74" as="geometry"/>
                </mxCell>
                <mxCell id="72" value="&lt;div style=&quot;text-align: left;&quot;&gt;&lt;font face=&quot;Söhne, ui-sans-serif, system-ui, -apple-system, Segoe UI, Roboto, Ubuntu, Cantarell, Noto Sans, sans-serif, Helvetica Neue, Arial, Apple Color Emoji, Segoe UI Emoji, Segoe UI Symbol, Noto Color Emoji&quot; color=&quot;#374151&quot;&gt;&lt;span style=&quot;background-color: rgb(247, 247, 248);&quot;&gt;(хранение и обработка)&lt;br&gt;сам презентер обрабатывает данные,&lt;/span&gt;&lt;/font&gt;&lt;/div&gt;&lt;div style=&quot;text-align: left;&quot;&gt;&lt;font face=&quot;Söhne, ui-sans-serif, system-ui, -apple-system, Segoe UI, Roboto, Ubuntu, Cantarell, Noto Sans, sans-serif, Helvetica Neue, Arial, Apple Color Emoji, Segoe UI Emoji, Segoe UI Symbol, Noto Color Emoji&quot; color=&quot;#374151&quot;&gt;&lt;span style=&quot;background-color: rgb(247, 247, 248);&quot;&gt;например сортирует&lt;/span&gt;&lt;/font&gt;&lt;/div&gt;&lt;div style=&quot;text-align: left;&quot;&gt;&lt;font face=&quot;Söhne, ui-sans-serif, system-ui, -apple-system, Segoe UI, Roboto, Ubuntu, Cantarell, Noto Sans, sans-serif, Helvetica Neue, Arial, Apple Color Emoji, Segoe UI Emoji, Segoe UI Symbol, Noto Color Emoji&quot; color=&quot;#374151&quot;&gt;&lt;span style=&quot;background-color: rgb(247, 247, 248);&quot;&gt;точки маршрута по дате&lt;/span&gt;&lt;/font&gt;&lt;/div&gt;&lt;div style=&quot;text-align: left;&quot;&gt;&lt;font face=&quot;Söhne, ui-sans-serif, system-ui, -apple-system, Segoe UI, Roboto, Ubuntu, Cantarell, Noto Sans, sans-serif, Helvetica Neue, Arial, Apple Color Emoji, Segoe UI Emoji, Segoe UI Symbol, Noto Color Emoji&quot; color=&quot;#374151&quot;&gt;&lt;span style=&quot;background-color: rgb(247, 247, 248);&quot;&gt;&lt;br&gt;&lt;/span&gt;&lt;/font&gt;&lt;/div&gt;" style="text;strokeColor=none;align=center;fillColor=none;html=1;verticalAlign=middle;whiteSpace=wrap;rounded=0;fontSize=12;" parent="1" vertex="1">
                    <mxGeometry x="257" y="550" width="133" height="30" as="geometry"/>
                </mxCell>
                <mxCell id="73" value="return this.#pointsModel.points&lt;br&gt;.sort(sortPointsByDate);" style="rounded=0;whiteSpace=wrap;html=1;arcSize=15;fillColor=#fff2cc;strokeColor=#d6b656;" parent="1" vertex="1">
                    <mxGeometry x="252" y="607" width="143" height="44" as="geometry"/>
                </mxCell>
                <mxCell id="74" value="&lt;span style=&quot;text-align: left; background-color: rgb(247, 247, 248);&quot;&gt;&lt;font face=&quot;Söhne, ui-sans-serif, system-ui, -apple-system, Segoe UI, Roboto, Ubuntu, Cantarell, Noto Sans, sans-serif, Helvetica Neue, Arial, Apple Color Emoji, Segoe UI Emoji, Segoe UI Symbol, Noto Color Emoji&quot; color=&quot;#374151&quot;&gt;(бизнес-логика)&lt;/font&gt;&lt;br&gt;&lt;font face=&quot;Söhne, ui-sans-serif, system-ui, -apple-system, Segoe UI, Roboto, Ubuntu, Cantarell, Noto Sans, sans-serif, Helvetica Neue, Arial, Apple Color Emoji, Segoe UI Emoji, Segoe UI Symbol, Noto Color Emoji&quot; color=&quot;#374151&quot;&gt;В init, используются данные из pointsModel для инициализации и рендеринга компонента представления TripInfoView, а также для принятия решения об отображении информации о поездке (если точки присутствуют)&lt;/font&gt;&lt;br&gt;&lt;/span&gt;" style="text;strokeColor=none;align=center;fillColor=none;html=1;verticalAlign=middle;whiteSpace=wrap;rounded=0;fontSize=12;" parent="1" vertex="1">
                    <mxGeometry x="241" y="770" width="154" height="30" as="geometry"/>
                </mxCell>
                <mxCell id="75" value="&lt;div&gt;if(this.points.length !== 0) {&lt;/div&gt;&lt;div&gt;&amp;nbsp; this.#tripInfoComponent = new TripInfoView(this.points, this.offers, this.destinations);&lt;/div&gt;&lt;div&gt;&amp;nbsp; render(this.#tripInfoComponent, this.#tripInfoContainer, RenderPosition.AFTERBEGIN);&lt;/div&gt;&lt;div&gt;}&lt;/div&gt;" style="rounded=0;whiteSpace=wrap;html=1;arcSize=15;fillColor=#fff2cc;strokeColor=#d6b656;" parent="1" vertex="1">
                    <mxGeometry x="243" y="875" width="182" height="119" as="geometry"/>
                </mxCell>
                <mxCell id="76" value="&lt;span style=&quot;text-align: left; background-color: rgb(247, 247, 248);&quot;&gt;&lt;font face=&quot;Söhne, ui-sans-serif, system-ui, -apple-system, Segoe UI, Roboto, Ubuntu, Cantarell, Noto Sans, sans-serif, Helvetica Neue, Arial, Apple Color Emoji, Segoe UI Emoji, Segoe UI Symbol, Noto Color Emoji&quot; color=&quot;#374151&quot;&gt;(бизнес-логика)&lt;/font&gt;&lt;br&gt;&lt;font face=&quot;Söhne, ui-sans-serif, system-ui, -apple-system, Segoe UI, Roboto, Ubuntu, Cantarell, Noto Sans, sans-serif, Helvetica Neue, Arial, Apple Color Emoji, Segoe UI Emoji, Segoe UI Symbol, Noto Color Emoji&quot; color=&quot;#374151&quot;&gt;играет роль в механизме реактивности, уведомляя презентер о каких-либо изменениях в данных, благодаря чему презентер может обновлять представление&lt;/font&gt;&lt;br&gt;&lt;/span&gt;" style="text;strokeColor=none;align=center;fillColor=none;html=1;verticalAlign=middle;whiteSpace=wrap;rounded=0;fontSize=12;" parent="1" vertex="1">
                    <mxGeometry x="241" y="1045.5" width="192.5" height="30" as="geometry"/>
                </mxCell>
                <mxCell id="77" value="this.#pointsModel.addObserver&lt;br&gt;(this.#handleModelEvent);" style="rounded=0;whiteSpace=wrap;html=1;arcSize=15;fillColor=#fff2cc;strokeColor=#d6b656;" parent="1" vertex="1">
                    <mxGeometry x="250" y="1113" width="168" height="55" as="geometry"/>
                </mxCell>
                <mxCell id="78" value="const pointsModel = new PointsModel(new PointsApiService(END_POINT, AUTHORIZATION));" style="rounded=0;whiteSpace=wrap;html=1;arcSize=15;fillColor=#fff2cc;strokeColor=#d6b656;" parent="1" vertex="1">
                    <mxGeometry x="254" y="167" width="177.25" height="63" as="geometry"/>
                </mxCell>
            </root>
        </mxGraphModel>
    </diagram>
    <diagram id="ZNMqmFJfZCLGVr1Lev6h" name="point-edit-view">
        <mxGraphModel dx="637" dy="507" grid="1" gridSize="10" guides="1" tooltips="1" connect="1" arrows="1" fold="1" page="1" pageScale="1" pageWidth="850" pageHeight="1100" math="0" shadow="0">
            <root>
                <mxCell id="0"/>
                <mxCell id="1" parent="0"/>
                <mxCell id="QJnHf4LCFnMPisE1bLEg-1" value="_restoreHandlers" style="ellipse;whiteSpace=wrap;html=1;" parent="1" vertex="1">
                    <mxGeometry y="20" width="520" height="430" as="geometry"/>
                </mxCell>
                <mxCell id="XuhjBygeJiSL02HKNPiS-3" value="&lt;span style=&quot;color: rgb(38, 139, 210); background-color: rgb(253, 246, 227); font-family: Consolas, &amp;quot;Courier New&amp;quot;, monospace; font-size: 14px;&quot;&gt;setPointRollUpHandler&lt;/span&gt;" style="ellipse;whiteSpace=wrap;html=1;" parent="1" vertex="1">
                    <mxGeometry x="60" y="80" width="170" height="80" as="geometry"/>
                </mxCell>
                <mxCell id="XuhjBygeJiSL02HKNPiS-5" value="&lt;br&gt;&lt;div style=&quot;color: rgb(101, 123, 131); background-color: rgb(253, 246, 227); font-family: Consolas, &amp;quot;Courier New&amp;quot;, monospace; font-weight: normal; line-height: 19px;&quot;&gt;&lt;div style=&quot;&quot;&gt;&lt;span style=&quot;color: rgb(38, 139, 210);&quot;&gt;&lt;font style=&quot;font-size: 11px;&quot;&gt;setPointSaveHandler&lt;/font&gt;&lt;/span&gt;&lt;/div&gt;&lt;div style=&quot;&quot;&gt;&lt;div style=&quot;line-height: 19px;&quot;&gt;&lt;font style=&quot;font-size: 11px;&quot;&gt;(&lt;span style=&quot;color: rgb(38, 139, 210);&quot;&gt;this&lt;/span&gt;.&lt;span style=&quot;color: rgb(38, 139, 210);&quot;&gt;_callback&lt;/span&gt;.&lt;span style=&quot;color: rgb(38, 139, 210);&quot;&gt;pointSave&lt;/span&gt;)&lt;/font&gt;&lt;/div&gt;&lt;/div&gt;&lt;/div&gt;&lt;br&gt;" style="ellipse;whiteSpace=wrap;html=1;" parent="1" vertex="1">
                    <mxGeometry x="240" y="50" width="170" height="80" as="geometry"/>
                </mxCell>
                <mxCell id="XuhjBygeJiSL02HKNPiS-6" value="&lt;div style=&quot;color: rgb(101, 123, 131); background-color: rgb(253, 246, 227); font-family: Consolas, &amp;quot;Courier New&amp;quot;, monospace; line-height: 19px;&quot;&gt;&lt;span style=&quot;color: rgb(38, 139, 210);&quot;&gt;&lt;font style=&quot;font-size: 11px;&quot;&gt;setDeleteClickHandler&lt;/font&gt;&lt;/span&gt;&lt;/div&gt;&lt;div style=&quot;color: rgb(101, 123, 131); background-color: rgb(253, 246, 227); font-family: Consolas, &amp;quot;Courier New&amp;quot;, monospace; line-height: 19px;&quot;&gt;&lt;div style=&quot;line-height: 19px;&quot;&gt;&lt;font style=&quot;font-size: 11px;&quot;&gt;(&lt;span style=&quot;color: rgb(38, 139, 210);&quot;&gt;this&lt;/span&gt;.&lt;span style=&quot;color: rgb(38, 139, 210);&quot;&gt;_callback&lt;/span&gt;.&lt;span style=&quot;color: rgb(38, 139, 210);&quot;&gt;deleteClick&lt;/span&gt;)&lt;/font&gt;&lt;/div&gt;&lt;/div&gt;" style="ellipse;whiteSpace=wrap;html=1;" parent="1" vertex="1">
                    <mxGeometry x="250" y="140" width="170" height="80" as="geometry"/>
                </mxCell>
                <mxCell id="XuhjBygeJiSL02HKNPiS-7" value="&lt;div style=&quot;color: rgb(101, 123, 131); background-color: rgb(253, 246, 227); font-family: Consolas, &amp;quot;Courier New&amp;quot;, monospace; font-size: 14px; line-height: 19px;&quot;&gt;&lt;span style=&quot;color: rgb(38, 139, 210);&quot;&gt;#setStartDatepicker&lt;/span&gt;&lt;/div&gt;" style="ellipse;whiteSpace=wrap;html=1;" parent="1" vertex="1">
                    <mxGeometry x="30" y="250" width="170" height="80" as="geometry"/>
                </mxCell>
                <mxCell id="XuhjBygeJiSL02HKNPiS-8" value="&lt;div style=&quot;color: rgb(101, 123, 131); background-color: rgb(253, 246, 227); font-family: Consolas, &amp;quot;Courier New&amp;quot;, monospace; font-size: 14px; line-height: 19px;&quot;&gt;&lt;div style=&quot;line-height: 19px;&quot;&gt;&lt;span style=&quot;color: #268bd2;&quot;&gt;#setDeleteClickHandler&lt;/span&gt;&lt;/div&gt;&lt;/div&gt;" style="ellipse;whiteSpace=wrap;html=1;" parent="1" vertex="1">
                    <mxGeometry x="320" y="240" width="180" height="80" as="geometry"/>
                </mxCell>
                <mxCell id="XuhjBygeJiSL02HKNPiS-9" value="&lt;br&gt;&lt;div style=&quot;color: rgb(101, 123, 131); background-color: rgb(253, 246, 227); font-family: Consolas, &amp;quot;Courier New&amp;quot;, monospace; font-weight: normal; font-size: 14px; line-height: 19px;&quot;&gt;&lt;div&gt;&lt;/div&gt;&lt;/div&gt;&lt;div style=&quot;color: rgb(101, 123, 131); background-color: rgb(253, 246, 227); font-family: Consolas, &amp;quot;Courier New&amp;quot;, monospace; font-size: 14px; line-height: 19px;&quot;&gt;&lt;span style=&quot;color: #268bd2;&quot;&gt;#setInnerHandlers&lt;/span&gt;&lt;/div&gt;" style="ellipse;whiteSpace=wrap;html=1;" parent="1" vertex="1">
                    <mxGeometry x="210" y="320" width="170" height="80" as="geometry"/>
                </mxCell>
                <mxCell id="XuhjBygeJiSL02HKNPiS-10" value="&lt;font style=&quot;font-size: 10px;&quot;&gt;&lt;b&gt;&lt;span style=&quot;color: rgb(38, 139, 210); font-family: Consolas, &amp;quot;Courier New&amp;quot;, monospace; text-align: start; background-color: rgb(204, 196, 176);&quot; class=&quot;mtk7&quot;&gt;PointNewPresenter&lt;/span&gt;&lt;span style=&quot;color: rgb(101, 123, 131); font-family: Consolas, &amp;quot;Courier New&amp;quot;, monospace; text-align: start; background-color: rgb(204, 196, 176);&quot; class=&quot;mtk1&quot;&gt;.&lt;/span&gt;&lt;span style=&quot;color: rgb(38, 139, 210); font-family: Consolas, &amp;quot;Courier New&amp;quot;, monospace; text-align: start; background-color: rgb(204, 196, 176);&quot; class=&quot;mtk7&quot;&gt;#handlePointDelete&lt;/span&gt;&lt;/b&gt;&lt;/font&gt;" style="shape=note;whiteSpace=wrap;html=1;backgroundOutline=1;fontColor=#000000;darkOpacity=0.05;fillColor=#FFF9B2;strokeColor=none;fillStyle=solid;direction=west;gradientDirection=north;gradientColor=#FFF2A1;shadow=1;size=15;pointerEvents=1;fontSize=11;" parent="1" vertex="1">
                    <mxGeometry x="350" y="200" width="140" height="30" as="geometry"/>
                </mxCell>
                <mxCell id="XuhjBygeJiSL02HKNPiS-11" value="&lt;font style=&quot;font-size: 10px;&quot;&gt;&lt;b&gt;&lt;span style=&quot;color: rgb(38, 139, 210); font-family: Consolas, &amp;quot;Courier New&amp;quot;, monospace; font-style: normal; font-variant-ligatures: normal; font-variant-caps: normal; letter-spacing: normal; orphans: 2; text-align: start; text-indent: 0px; text-transform: none; widows: 2; word-spacing: 0px; -webkit-text-stroke-width: 0px; background-color: rgb(204, 196, 176); text-decoration-thickness: initial; text-decoration-style: initial; text-decoration-color: initial;&quot; class=&quot;mtk7&quot;&gt;PointNewPresenter&lt;/span&gt;&lt;span style=&quot;color: rgb(101, 123, 131); font-family: Consolas, &amp;quot;Courier New&amp;quot;, monospace; font-style: normal; font-variant-ligatures: normal; font-variant-caps: normal; letter-spacing: normal; orphans: 2; text-align: start; text-indent: 0px; text-transform: none; widows: 2; word-spacing: 0px; -webkit-text-stroke-width: 0px; background-color: rgb(204, 196, 176); text-decoration-thickness: initial; text-decoration-style: initial; text-decoration-color: initial;&quot; class=&quot;mtk1&quot;&gt;.&lt;/span&gt;&lt;span style=&quot;color: rgb(38, 139, 210); font-family: Consolas, &amp;quot;Courier New&amp;quot;, monospace; font-style: normal; font-variant-ligatures: normal; font-variant-caps: normal; letter-spacing: normal; orphans: 2; text-align: start; text-indent: 0px; text-transform: none; widows: 2; word-spacing: 0px; -webkit-text-stroke-width: 0px; background-color: rgb(204, 196, 176); text-decoration-thickness: initial; text-decoration-style: initial; text-decoration-color: initial;&quot; class=&quot;mtk7&quot;&gt;#handlePointSave&lt;/span&gt;&lt;/b&gt;&lt;br&gt;&lt;/font&gt;" style="shape=note;whiteSpace=wrap;html=1;backgroundOutline=1;fontColor=#000000;darkOpacity=0.05;fillColor=#FFF9B2;strokeColor=none;fillStyle=solid;direction=west;gradientDirection=north;gradientColor=#FFF2A1;shadow=1;size=20;pointerEvents=1;fontSize=11;" parent="1" vertex="1">
                    <mxGeometry x="340" y="110" width="140" height="30" as="geometry"/>
                </mxCell>
                <mxCell id="gT8j6zGCx_xPTr5pBcvw-1" value="&lt;div style=&quot;text-align: start;&quot;&gt;&lt;font face=&quot;Consolas, Courier New, monospace&quot; color=&quot;#268bd2&quot;&gt;&lt;span style=&quot;font-size: 10px; background-color: rgb(204, 196, 176);&quot;&gt;&lt;b&gt;abstract-stateful-view&lt;/b&gt;&lt;/span&gt;&lt;/font&gt;&lt;/div&gt;" style="shape=note;whiteSpace=wrap;html=1;backgroundOutline=1;fontColor=#000000;darkOpacity=0.05;fillColor=#FFF9B2;strokeColor=none;fillStyle=solid;direction=west;gradientDirection=north;gradientColor=#FFF2A1;shadow=1;size=15;pointerEvents=1;fontSize=11;" parent="1" vertex="1">
                    <mxGeometry x="210" y="240" width="140" height="30" as="geometry"/>
                </mxCell>
            </root>
        </mxGraphModel>
    </diagram>
    <diagram id="2yRGC6ZrE2sQdsmj5W-L" name="Route-presenter">
        <mxGraphModel dx="625" dy="354" grid="1" gridSize="10" guides="1" tooltips="1" connect="1" arrows="1" fold="1" page="1" pageScale="1" pageWidth="850" pageHeight="1100" math="0" shadow="0">
            <root>
                <mxCell id="0"/>
                <mxCell id="1" parent="0"/>
                <mxCell id="9fgSOFIupMRZZuHD_97O-2" value="&lt;b&gt;&lt;font style=&quot;font-size: 14px;&quot;&gt;#handleViewAction&lt;/font&gt;&lt;/b&gt;" style="ellipse;whiteSpace=wrap;html=1;fontSize=10;" parent="1" vertex="1">
                    <mxGeometry x="185" y="100" width="240" height="160" as="geometry"/>
                </mxCell>
                <mxCell id="9fgSOFIupMRZZuHD_97O-1" value="обрабатывает различные пользовательские действия (например, обновление, добавление или удаление точек)" style="text;whiteSpace=wrap;html=1;fontSize=10;align=center;movable=1;resizable=1;rotatable=1;deletable=1;editable=1;connectable=1;" parent="1" vertex="1">
                    <mxGeometry x="200" y="200" width="210" height="50" as="geometry"/>
                </mxCell>
            </root>
        </mxGraphModel>
    </diagram>
    <diagram id="aRV5mWLuNf_CZs9XtgVy" name="new-point-presenter">
        <mxGraphModel dx="2337" dy="1607" grid="1" gridSize="10" guides="1" tooltips="1" connect="1" arrows="1" fold="1" page="1" pageScale="1" pageWidth="850" pageHeight="1100" math="0" shadow="0">
            <root>
                <mxCell id="0"/>
                <mxCell id="1" parent="0"/>
                <mxCell id="GJBX5-q9BA4gX0n_ihJw-9" value="&lt;font style=&quot;font-size: 10px;&quot;&gt;main&lt;br&gt;&lt;/font&gt;" style="shape=note;whiteSpace=wrap;html=1;backgroundOutline=1;fontColor=#000000;darkOpacity=0.05;fillColor=#FFF9B2;strokeColor=#000000;fillStyle=solid;direction=west;gradientDirection=north;gradientColor=#FFF2A1;shadow=1;size=20;pointerEvents=1;fontSize=11;" parent="1" vertex="1">
                    <mxGeometry x="720" y="610" width="255" height="709.92" as="geometry"/>
                </mxCell>
                <mxCell id="GJBX5-q9BA4gX0n_ihJw-42" value="&lt;font style=&quot;&quot;&gt;&lt;b style=&quot;&quot;&gt;&lt;font style=&quot;font-size: 14px;&quot;&gt;PointEditView&lt;br&gt;&lt;/font&gt;&lt;/b&gt;&lt;br&gt;&lt;br&gt;&lt;br&gt;&lt;br&gt;&lt;br&gt;&lt;br&gt;&lt;br&gt;&lt;br&gt;&lt;br&gt;&lt;br&gt;&lt;br&gt;&lt;br&gt;&lt;br&gt;&lt;br&gt;&lt;br&gt;&lt;br&gt;&lt;br&gt;&lt;br&gt;&lt;br&gt;&lt;br&gt;&lt;br&gt;&lt;br&gt;&lt;br&gt;&lt;br&gt;&lt;br&gt;&lt;br&gt;&lt;br&gt;&lt;br&gt;&lt;br&gt;&lt;br&gt;&lt;br&gt;&lt;br&gt;&lt;br&gt;&lt;br&gt;&lt;br&gt;&lt;br&gt;&lt;/font&gt;" style="shape=note;whiteSpace=wrap;html=1;backgroundOutline=1;fontColor=#000000;darkOpacity=0.05;fillColor=#FFF9B2;strokeColor=#000000;fillStyle=solid;direction=west;gradientDirection=north;gradientColor=#FFF2A1;shadow=1;size=20;pointerEvents=1;fontSize=11;" parent="1" vertex="1">
                    <mxGeometry x="-970" y="550" width="410" height="710" as="geometry"/>
                </mxCell>
                <mxCell id="LNxfWFya5-ldC0DAc3bA-1" value="#init&lt;br&gt;&lt;font style=&quot;&quot;&gt;&lt;span style=&quot;font-size: 10px;&quot;&gt;инициализирует экземпляр&lt;br&gt;&lt;/span&gt;&lt;font style=&quot;font-size: 10px;&quot;&gt;1)проверяет наличие компонента&lt;br&gt;&lt;/font&gt;&lt;font style=&quot;font-size: 10px;&quot;&gt;2)создает компонент&lt;br&gt;3)устанавливает обработчики (сохранение, удаление, сворачивание точки)&lt;br&gt;&lt;/font&gt;&lt;font style=&quot;font-size: 10px;&quot;&gt;4)рендерит компонент&lt;br&gt;&lt;/font&gt;&lt;font style=&quot;font-size: 10px;&quot;&gt;5)добавляет обработчик события&lt;br&gt;для нажатия клавиш на&lt;br&gt;весь документ&amp;nbsp;&lt;/font&gt;&lt;br&gt;&lt;/font&gt;" style="ellipse;whiteSpace=wrap;html=1;fontSize=14;" parent="1" vertex="1">
                    <mxGeometry x="-540" y="-70" width="790" height="1410" as="geometry"/>
                </mxCell>
                <mxCell id="GJBX5-q9BA4gX0n_ihJw-27" value="" style="edgeStyle=none;html=1;fontSize=9;entryX=1;entryY=0.5;entryDx=0;entryDy=0;" parent="1" source="RupRjQCE6EZYwhgRssD4-1" target="GJBX5-q9BA4gX0n_ihJw-20" edge="1">
                    <mxGeometry relative="1" as="geometry">
                        <mxPoint x="-590" y="840" as="targetPoint"/>
                    </mxGeometry>
                </mxCell>
                <mxCell id="GJBX5-q9BA4gX0n_ihJw-28" value="значение колбэка _callback.pointSave" style="edgeLabel;html=1;align=center;verticalAlign=middle;resizable=0;points=[];fontSize=9;" parent="GJBX5-q9BA4gX0n_ihJw-27" vertex="1" connectable="0">
                    <mxGeometry x="0.1264" relative="1" as="geometry">
                        <mxPoint as="offset"/>
                    </mxGeometry>
                </mxCell>
                <mxCell id="RupRjQCE6EZYwhgRssD4-1" value="&lt;b&gt;#handlePointSave&lt;br&gt;&lt;/b&gt;&lt;font style=&quot;&quot;&gt;&lt;span style=&quot;font-size: 10px;&quot;&gt;обработкa события сохранения&lt;/span&gt;&lt;br&gt;&lt;span style=&quot;font-size: 10px;&quot;&gt;(или добавления) точки&lt;br&gt;&lt;/span&gt;&lt;br&gt;&lt;br&gt;&lt;/font&gt;" style="ellipse;whiteSpace=wrap;html=1;fontSize=14;" parent="1" vertex="1">
                    <mxGeometry x="-370" y="750" width="420" height="180" as="geometry"/>
                </mxCell>
                <mxCell id="GJBX5-q9BA4gX0n_ihJw-45" value="" style="edgeStyle=none;html=1;fontSize=14;entryX=1;entryY=0.5;entryDx=0;entryDy=0;exitX=0;exitY=0.5;exitDx=0;exitDy=0;" parent="1" source="GJBX5-q9BA4gX0n_ihJw-47" target="GJBX5-q9BA4gX0n_ihJw-43" edge="1">
                    <mxGeometry relative="1" as="geometry"/>
                </mxCell>
                <mxCell id="GJBX5-q9BA4gX0n_ihJw-46" value="&lt;span style=&quot;background-color: rgb(153, 204, 255);&quot;&gt;callback&lt;/span&gt;" style="edgeLabel;html=1;align=center;verticalAlign=middle;resizable=0;points=[];fontSize=14;" parent="GJBX5-q9BA4gX0n_ihJw-45" vertex="1" connectable="0">
                    <mxGeometry x="-0.2302" relative="1" as="geometry">
                        <mxPoint x="-8" as="offset"/>
                    </mxGeometry>
                </mxCell>
                <mxCell id="GJBX5-q9BA4gX0n_ihJw-4" value="&lt;div style=&quot;text-align: start;&quot;&gt;&lt;font face=&quot;Consolas, Courier New, monospace&quot; color=&quot;#268bd2&quot;&gt;&lt;span style=&quot;font-size: 10px; background-color: rgb(204, 196, 176);&quot;&gt;main.js&lt;/span&gt;&lt;/font&gt;&lt;/div&gt;" style="shape=note;whiteSpace=wrap;html=1;backgroundOutline=1;fontColor=#000000;darkOpacity=0.05;fillColor=#FFF9B2;strokeColor=none;fillStyle=solid;direction=west;gradientDirection=north;gradientColor=#FFF2A1;shadow=1;size=15;pointerEvents=1;fontSize=11;" parent="1" vertex="1">
                    <mxGeometry x="490" y="587.49" width="180" height="30" as="geometry"/>
                </mxCell>
                <mxCell id="GJBX5-q9BA4gX0n_ihJw-6" value="" style="shape=image;verticalLabelPosition=bottom;labelBackgroundColor=default;verticalAlign=top;aspect=fixed;imageAspect=0;image=data:image/png,iVBORw0KGgoAAAANSUhEUgAABBgAAAETCAIAAAATfCJaAAAABmJLR0QA/wD/AP+gvaeTAAAgAElEQVR4nOzde3xTdZ4//ldOc3LStE0pBBiG1MGGDhC5RYWiSBG1eKvoWJwZ6zpDYb4/OjM7MvPdL+x3Z8uOu7Dz28HdHXHWnTK72pllzOhIVJw6qFWRIEpBDHJJYSAFabC2BNqmuZ1Lz/n+kbRNmrRNSnqT9/PRP9rm5ORzrvm8P5/353NUXYEmEEIIIYQQQkgSmExj5JfRLQchhBBCCCFkPKJAghBCCCGEEJIyCiQIIYQQQgghKaNAghBCCCGEEJIyCiQIIYQQQgghKVMP+Z2y38/Xf8x/crTrkke50tbV4ZXb29NYMkLIqGMmTMjI1asm5mUYJnE3Wbiim5msrNEuFCGEEELGBNUQpn/lDx7y7a4VPz2uSF3DUSZCyNikUmewC+dnP1jKFS0a7bIQQgghZHT0TP+aWiAhHD3W+dzvhNNnhqdUhJDxQTOrMPt7a7gF80a7IIQQQggZaakHErLsfe53/l2vQVGGsVyEkPFCpcpa/Q39uu+AoaFWhBBCyDUktUBC7uho+6f/XzjuHOZSEULGGc1NC/P+fhOTnT3aBSGEEELICEnhyday339lYxVFEYSQeMKRo1f+5qdyIDDaBSGEEELISBskkFBEse0ftojnPxuZ0hBCxh3x3Pn2zVsUURrtghBCCCFkRA0SSHh3PEd9EYSQgfHHT3b+V81ol4IQQgghI2qgQEL45Gjg9T+PWFEIIeOX/7U/CY5PR7sUhBBCCBk5/QcSsuz9DTUxEkKS1fn8/9CsboQQQsi1o99AIvTBh2LjuZEsCiFkXBNOnwkdODjapSCEEELICOk3kPC/9qeRLAch5EsgQPcNQggh5JqhTvhf2esVnKeTeb+KZXUPPZB51+0Zkw00lzwhXzKyz9fV0hp89/3A7tpk5mXiTzbInZ1MTs4IlI0QQgghoytxIMEfPAxZHvTNGYZJeVuqWJMp3aUihIwJTHY2k53NmgoyVyxv+4ctXZevDPKGri7+0JHMO28ficIRQgghZFQlTm3ik5h9RcVp8n7+JEURhFwL2EJT3j//TKVhB12S/+ToCJSHEEIIIaMucSAhX/IM+k7dA/exM76W7vIQQsYotuB6Xem9gy7WlcTdgxBCCCFfAokDia4rbYO+M3PF8nQXhhAypmlXFA+6jHxlsPQnQgghhHwp9BNIDJoJDajzp6e7MISQMY3NNw66TJfn8giUhBBCCCGjLnEgoQSDg75TpdWmuzCEkDFNpdMNuowSGPzuQQghhJAvgf6fbE0IIYQQQggh/aBAghBCCCGEEJIyCiQIIYQQQgghKaNAghBCCCGEEJIyCiQIIYQQQgghKaNAghBCCCGEEJIyCiTGCVn2eqXRLsRo6jz1fOWbp4TRLsaX3sUD/1Z1uGW0SzEMxPaP3/+3yv959ObnVt38xzp61AUhhBBy9dSjXQCSBCGw/Xd8tQD9FE3dI1n60S7OyBNOP7/2wGvnGPd7nn+4xzDMH+Y5+I87TjVH/2fO0uqHC69iyTM7/vmAA9PW//3dlvQWNRmn36rc1QzD7J+tXzJt0IXbPvr1X/a9KX/M4+mnFk0dgdKNELll92s/2OIVNRmz75k+76vZ+ZrRLhEhhBDyJXBNBxJ8k7/6Q7EuW1N7/+CP2RpEq2/9y6I9+j8MzLlM2SxtqYXTX2XHz7muGgEAvK2yC7j6ymg6N3wEtNZt/PC1c8zNm+8f/igCQOakhfOM4Qc4B1ubT7R0pWHJ8SLvlq33/6jzjV/tPfaPT+u3/3gWO9oFSo/Oo7/f4hU1+h+9XFYynXphCSGEkDS5pgOJzvNitUdBZjrXadKCAwDwApxtsvNgYNsJwfpIjvlqauyF3NZPpKorWDiLNaejkMOx4cNFdj3/1q8OyOwji/7uwSkj8olZhQ+uivQqNO/fdaLFl4Ylx5EpJU/d0vTIgdd+X7/ztuvW3jwuTpLBnGvdB+Cb8yiKIIQQQtLpmg4khoF6y7qc7h4Dxdvo3/auaPNJ5W8G6h/WcUNeK6MpfVRTmp4SjjPnDuz4TwGaKX/3k/lfktbxsU8z+/HN5z6q/Py1Lftuffme2SOXBdT80bZXpW+uXTZDm971tp/zArj5+hHoziKEEEKuJdRAN3xU+oLsrberjQDfLNq9o12c8aj9o+fOngJu/ttbbqak9hHE3nzL2nsYXLz4/O7PR+ozWw4/+avDn15wPPlvbxxuG6kPJYQQQshVGLYeCS9vPxh6/rxcLwKAQaN6YJ62crE2arRAYNuzfI2e3f94tsEbqn0/VH1Rcckw6Jjv36orj0/O9gRsHwo1FxWXDDAomqj+/p3ZRQZV7EIK38LXOfm3G+X6ELyILLm2OLN4Ws+WCrad/qroan0TP+dZPupv1dZHJpRFZ9HIossRqj4m1QXAJ96W/pkySiDVQPGGgOhR0t5Q7X7e6pYdUn/7p3sXRf8jvLviPsSzv33ZMaViRd6mQqH+7cCWC4pLBqdWlXyd27w8s3udqW/4aLt44tU3ZWimPnTvYG3J3uZjf65rONQcDEgAk6GfOmXlHUvvmpEdvYzY6T569NReZ2vTFUGUI4utWLbk3sLcYdyGPuU8/8kf3jt1okUQZbATpty3asW9+bHJQ5Kv8fSJvUc+O90S9AoAwGblzr1pQdnSAkPC883ffMD+8TsNl5uD3QvfeuOjN39tkJPz0sGf//epCzL085Y+uaowQdrdhFv+Kn/qm5+d+r3T9chXTUPb2NToJhfm4cxliJ2up//9xcfWfeO+GUPvwyOEEELICBiWQIJ3dpbvk5wy0D1moFVQao4Eoddu6pPj71VcLb5/ekWsk2HQwCzDGZC3vOPzZkyonKmKX6HFwFRmM942yeaR1rzUXrEiZ5M5ehOC23fxNQAYmLUA0Cqg3iPVv9IZtaRKr4U5PI2oBKcEMDDHNHer9NGrlIXaF/0b28CpVWUzMvRdcv1FueZI0HpWqi3PNg4aS0gKH/c//kxnxTuSQ+4uZxecglJzJGg9LcaOplBN1iKyw7rgFAf5KK/bV3VAtAnQszCr4RKUWmeoIaDY7g9nVaW44aPP/eH5U8DU782ZP2B3RNDx+qs7jgsAoM7Q52RA7vI2N+964cCkmFmSLr9jfWe3BwB0OZpMQAoK3ubm3X981VF830+XjUT8dOHAq8+/3yGGC8AL3vbW3f/z6uffXL2usHf7mj96c5vdB4DN1OhzAEnw+jscdrvjdOvP1i6ZFnu+BU6/8+Qrbq8c2Sg1EPR3OOr2InfN+ln9l6M7ijAsLP7p/QX9Dd6ZbVo5/bOdF5v2HZNN84fYc+n67f99o67/lwtLHn/yzrzIHzkzHvubx69/7o/PuniIrS/8ZufFh7/5v26+BqcoI4QQQsaNYag5tvie2Cc5ZZiNmh33ZRnCXQuy7D4daEgwcFNa/wp4NfPUvfpSowqQHK93ljdh+9FAxcysSINka2SFUcGAsuGEr3yfVLPPb5mWW5LXszbGXKipXZRpyuuu+IhC3W7/Ey2oqQ+Vm7ONAMCWPJJXAqC7IR/TOduq/mpTsmOPf2MbuFy2N2wQedtLgaoOsbIuVHv3INnc/EnJBoDNmNNTU23zV70jOWQUz8l86vbuLgiPf8urgtUnbXgnULuqZzRFZsW6zIrwr87OOXsHeY6E7YwIRrX53qzyAhZQvMe8Zftl13mxXkCxJtUNT9q53z19eE//L99w48rNxROGtOY21wc8gFvmXz/QUs3739hxXACjsdx799qFkyI9WUKr44MvYjsa1IZZs9c/tGDu1MzIMrLvdN2bv/zYd+GDjw8X3bdo2HOnmve8D92M2X/90JJZWYDsO/za6881CIffPlxSuPS67oXYicYHVxcsN03RdV+a3vP2X77Q2Nxyynbyxr+eF1XKSweffsXtlaGfdeOmh+YbwsvLQvOZw6f7P6piy8Gnnj91QcZ1y+7eWDxtoHEn18+7m8Hz8kcff7Z24EOQNkzerf9rzVf3vPrkvlZRDry/67cXv3hkU+m08TCzGCGEEHItSvsYCbn+gGiXYTRy1ge7owgADGOck10yI8EbeDWzoywcRQBQWyysGcAl2Rl5XXEeEe0yjAXaqM4HlX5u1uZpgCzvOhH9jDJt6cqs3igCAKspWcYWAQgol4awNW2BmvMAVFvvj+p8YLmy21kL4GoUHfIAb1a8Z31PHJR5oHShtqcnxnlIqJXBTdU8c0dUIpMha/M9rAVwN13FaApGtfXh3PKC8E5X6edrK7QAZOeFoa4wGV3eEH+g/5+m0JDnRG11HQCQk3/9ACepcNL2gQ/IsKz6xvqeKAKAZorljvkFMYvmLrp9iaUnigDAZM8qmWsBIAc8IzKCRTdnyZOPLpmVFfn0RSWzrwPQ3nzS07uM4YYl987qjSIA6GcU3zcLAC63d0atTDi899QFGbpZS55c3R1FAGA002YtvT0/cQF6o4jb7/vpwFEEAOTPyQXQ0tjmT2EjrxY3495v/+e3Z01hAODMBy9v/N3J9oGusiS0Hn6vE8i8+WYabE0IIYSkVbp7JITg280AUHFjspMUbSrRF0+MGurAwQCgt+rA25sAoKywT3cGY/qKCs2KvUXkoRnos6YyZqA+ucL04T3TVQdgIlucF/uCkSli4JClhouwxFTapM3PtYUL0yrAIwNAiVm3dXFPnY0/6gaAcnPc/slnS7WiIyQ73CgZ0iSvRWZd2dToQSMqTgOE4B3Wx0HP/NH/nfmj4Vjx5StuANDnT+p/GbHhsxMykFNQcsOQpillJl9ngMMz+ILpMO3Rh2bHDF3IMd4w8diFK74Ll4EB67jGqdk4HTu3rHCm/gwAza23zE6ywb47itDMuvuun9ycTCpX1iQd0IZOfrCkun6Z1vzLE2tSf5tu4d2/nDrl6f/afziA9oZ3f/yrK0+uT30qp85TLx88fNF3fE/7qcvMLX97W8n01EtCCCGEkAGkO5BoV9wAoJ7TT5toHJVeFztgekr2jh9G/y17RQBwnOzcfjr2reGaVVDpBKIq5QrfJjgbxaNfKN2tzPLRZEvfl8ArABCSat7ojH1FdmYAMtydfd/iCkV+0bMomc5W3JpliRkR3uUOAVCZ+g4TB6AxGQJww3VZAIaSZ8Nde1NwebwBADBOKRhsyTCRb2086z7uutIR+UdXS9wRHD7qvgcoQ8MAQEenD4gaFy4FL1z47C/n3Z91xw7B1mDfdXk7LwPAJFOStWPJXfNbX7MM9oZFf51UFDHamIyrXQPf9MGFlw8AwNSlxltvnkzTBxNCCCFpNrZG1w7A7pbsgy4U4K2vBbakfe7IgFx9PsnsCrX1hzlDffK0Emn5zYiPMcaws7/6l4+29f/yvTfe95uVA/QpjBi548Arb+w8Pay9M0OUm9kbRXg+fWvbn5u9V5nME09tfPyhjv/Y1Rw4efj5Ocb1s0bmOXOpDLaOEmh49593ngxfcxPm3PnPj98wYQhBsqFk+7oSCC3HPthRee7fHqvFnx5ZPhbOREIIIeRLI92BRGR9XY2tsKSp3ZNjAFm1dfWEsqkDLyjXvxnY0gYuV11zZ6ald77XuElUkxduFTVyDQ+ma8Ano2cBUbnkBfruH9HdAQDmSeOq6TRDr+WW9v9yvnaoLcuT8ozAx/A2Xcbs/up/bLh+eelyMwqnDbi2C++/ufO0gMwpq7+1dPm03MgbcXnPjj/tHqHUpniCnweQoeup1bcceLq22QvN3JLiby80Grr7pZr37/pHe2xqE5PBAkDnF55B0qJ6ZM66+6elf/55bavjlVefe/gb6waPJfyXAwCQw43kCcmfDw+2BgAU3nbVg601U+ffsfYnv//4F959h9uW35MgbCGEEELIEKU7kJjILteK9pBiO8GX3ZGWaeC1lsk8WpS3/yKUTR044Se0rxkANi3PsURXKkXET8AaEa7jCgofkxzVy5CvNjtEZ0uXQ4AlPbP6aCyGIJphcwYqZsYOkzgrWEMAoy4uTMsHDWiwDU/B9d/98fXfvfoSJTAx/2bg486mczIm9dMgbZgxTY8zXs9nBy4uWT1Qks/lk2eCAObeeddd06MOpCwIaW/7T97FxqOdAGe0zIj8o/kvzR4ApgXrFxujK+9iV9yI9YnGr+ecvNDpO+Bovrdk4Biql2HBfRu9u/7R7jv8yhuGtd94cOrAQd4X53wATAumZiW5/qslew/v/MPTDTwAMLrb0zb9a7ZGA/CfNl4GKJAghBBC0iftqU1c6bzQtsOyoyFQxSqblnZPTBSZ/jXxxE0DYormqU0tkv2Ef5sOGyya3pEAAcFxRBBuyC6a2P3ZDCDDcVEsz2cjH3rCX3VA6m+ktWFKhhGSu0XYfkKzaW6iZtd8TUWuuLFDqtzlq7k/y5zbnXQkyx538E+fZ1QsSXUEKFM0X21qllxN/JaDGZsXc5HNcfuq9kouoHgBZxn+oQ6Db/hYMKVgMYuPxTc+OLP25v6eijB97n35Z15sCr7z0p+yHl5xb88T6MLTv/ZO3KQOx05fNDUHFnxNBwBd3sbDz71+6vRIzkgUjXfv2nPGA1x3y/y53Uc80k9yubWRv2EWBwBi52fv1B7Y3RifkTVt5a2577zV4Tm095fapeuWdj+BLjL9a78TN01bdv/6S6/uaPDtef5VzfdW3zu5/xJePP2eCLC3zks2TomXymDrzvMvVL/+58sAAHbKMDyQThSGPIEYIYQQQhJJ/xgJ/eKsmkudFedhOxa0HQt2P5AOHhkVK1CS+gq5WZnbL/rKGpSag/6ag/7wCiOPVIPqqRt6FswsKeCrz6L2iM9+DMaMyIdyWpWlS3EknHhmpnbTYd8TV1Czz2c9AFNkZzCV38gtiQQnmtL7RIdNsLaJZb9v59SRZdwheAFuBleR+uZgZnZ1c0fpMcV2JGBzBMya3ofNmWdwz9wa1V5+prPM3v3siHAdyCeufy4yBGTOvOyoyaBSLcOgGz4WmFZcb/rPv7j+eObYD2b190y63Nu/tdT16wOH/Zd3v7BrtzpDn5kBucvr7wKmrb9jfs9iSxfm7n6rw/Pp3v/doNFzkIJCQALU2dMm+JrbY9bo+fhP2z7sHoLNCwBw5uCmZw6H/3Hj/eXfNqW8JACgeccvdk6bNsU4IUNqv3ziYlCUoZ+39MdLe/O2DPMLCuzHGts/++W/79RnZUASvEEAmGbIbPb0HW+tv/me9Z+/uuO4cNq+d5O954F0gijDsnrp7f3u1UzLQ3c92P7n3c2+3Tv/rF9739J+nvJxquHVU8D0r944e2QG8QcunWkDADbH9MMf3L+Iug4IIYSQMS9xHUGVOfhYTCUYN5NMhNpy/wT7vWylQWVi4ArBGUKujtm0RFc5e2iFVJvuyLU/qNlkUJnVkRW2Mqpys6b2r3JLeyu+KnNJtu0mpoSFV4QzBKhVFTdl2r+jK+t3a9iSb2Vb5zMlGkCCMxT+UbzRT36bmLV5TZZ1PlOiBRdeRsAcg3rrHVn19w4teVtlXBbZHBPgDMHZBXMe89Td2d2PoO4m9hSp+7HWcu9/LoVnlBqiJDZ8DLh+3kMrAKHl97s/738hrnDdE6t/UmIsMGSwUpe3U/DymJZf8PjapdGj3vU3r9q6qqBgQgYEwdspiGxmwY1LfvaT1avimtvFIO/tFCI/kQeBd/X8p0MawpIFZY/Ov8uUq+fQ3NR8+Ljb0SwYphtXP7Z626rCmHMo58afrF9ye34miy5vp+AVM6blF6z7/8p/dnvCyn6mZVX5tsfmL8rP1KkR6BS8nQI7cdLt99/96MDZccyUe9fc9+BUINi68/m3HAkz/4If725qAW5euzAmGFICgQFXDQAq3ZBGck9d9OSPFi24zvLk31AUQQghhIwPqq5AU/x/L1VUShcHqLsBwKRf/atm1teHp1SERJx67wd/dc6tyfu7tx6+JWe0C3PNEI/VbVh7wX399b98+Y6YQEJoOH15w8aB36zON05+7j+Hs3ipat/9x+9s6cRf3fb6j/vLkSOEEEJI0phMY+SXhC9nTBo8wSX0zvtpLBAhCc2+7Ym1Gght/1r1Uctol+VaIZzeueWCG5qHNt9i6vNSsO69Qd/OJHH3GFkTpodj0KvpwyOEEEJInMSBBDNlgDGYEYE9b4nnzqe5OIT0oZn9g7t/tJQRDzj/8enTQ37EMklaa93GD187B+MPbls7PzZHSXS5gm8N8FiIiIzJyc1HO4Kun3AzgD8er7s4ipN0EUIIIV86GT/7+/8d/18lxIcOfDTIW7tk/uAhzcJ5GRPHWgMk+XLJMt2pC7534ZDd3XTdjGUzR+ZZatemzmNPv/Evb0jGRxb9/EezY2YkE06faf+HrbJv8Fmush/5BlswY7hKOCS6qVOlU3UfBw69cvyM59KFY83c7OsM6Z0TihBCCLl2qNjI/OyJA4mMyZP8tt1QBkkFUALB4Nvvdl2+wuTlMfocVcZQnz1GyIAyDJY71cFzGSvX32Cgk2wYcRMnXG7puv6Jny6M9CoooiiebfTtfLHzP3fI/sFHWiMjI/fHP1RxY6yWnmFY9PVl11250uRz2NuPO4TZ5TeY0vWMSUIIIeRa0xNIJB5sDeDypirh6LERLBIhZNzT3Lhw0r/802iXghBCCCHDaJDB1gCyHrh3pApDCPmSyCql+wYhhBByreg3kNAuW6pZOL+/VwkhpA+NZYH2tltGuxSEEEIIGSEDPbQ2Z913oFKNWFEIIeOYSpWz9jujXQhCCCGEjJyBAgnNrK9nrX5oxIpCCBm/slZ/QzNr4EdqE0IIIeRLZaBAAoD+e2u0y28bmaIQQsYp7fLb9N/77miXghBCCCEjapBAAipV7k/+mp3xtREpDCFk/GGvnzHhxz+iNEhCCCHkWjNYIAEwOt2kZ56iMZSEkHja226ZtH2bKoseE0gIIYRcc/p9jkRfsux97nf+Xa8N+pQ6Qsg1QaXKKntQ/701YAZvjyCEEELIl0bPcySSDiQAANJnTZ07/xCyfzA8pSKEjA/a4tuyH/82+7XrRrsghBBCCBlpQwwkwviDh3y7a8VPjytSV7oLRggZu1TqDHbh/OwHS7miRaNdFkIIIYSMjqsKJMJkv58/eJj/5GjXF1/InstdniuKKKavhISQ0adi2QzDRMYwKeMrX+FuXMgtWcRkZY12oQghhBAymtIQSMSzvVOfp8+6Y/HcdK1whIiSl2f02ZTnTQghhBBCyCB6AokvVe3Z8XrbnGfbtjlTeU+rb/1/dxb9rqPs7dBwFYsQQgghhJAvHfVoFyBpHQFrnWAT1TsezTakb62es5JdBgBni+QB0rjmwYSqfxPcnsnufzy8OYFtz/I1+p4/CQDRsTdQc1ZZ+eCE0ikDLKZ4LwRsH4m17YpTAgAwMOuYIrN20yJu+Aspuw75qxsk06K8SnPCBQLbnuVrBl5HPtewSjcMZRtvBMFRH6z5i1wfghcAYNDAksdWrMy26If/0we7w3j2ty87NvCcdaqtj0woG+hcHVME205/lTfqHwzMGtXCArb8Jp1J3+epIAOcxmrrD3MsQ1kygnd0LPxQBgAtW7su2xT7quP1tvImFM/P2rFMk7D8MS+1+ta/LNr7+aDYZQaS6OMIIYQkMH4CiYtdW1oUpLs+YVio2XCa3x5CmVkzsjV42SsCOarIl9UV2QUgl6EoIopY55TroFo+wCKyaP+T7wk3eIBTw6wFAEhw+mRnc9emkSikdPS0VOtDRb8LqCZr0RtiyHAJ4AGTFr1RjpYe5Qb+vG/jHrFOBgCTFuEeU3cIdS3S8hBGIpAY9A7Dqcza3kCCF+CSwalh6r2JqvTj54baQ8/CmAEAkOAMKU6nYD0lVCzJ3mRh4xc2aDAluW7spJeU611y5NeQWN8EU35S6x86dewl2QWnGA6ieheZzNElSQghSRmH33vppdNVVugqR/5zW2UXgCxVpN4iggeM3Jcq02wEeA7417sBDfPUPTml+VF7T5Q8gdErVozMinWZvWFGd4vplnX9t5heg4TA9rfFOhmWmVz1HTp9bw1W4X0SPzaahg2Lc22Le/8Mt5QXmcd903XZbXmbeqrVglBfF1h/Xqn50AcuZ5O5zxeE6scPJtnlkvSSQnBfCwBVyUSl7gpsZ/jy/GHuSJyYtXVd1IQBzs45eyVkszuoN5gQQlJHNddRwsMDFOV2f09fVuqBAh0djpQI+xoVAOU3x0YRAFi1IfeaD5LHkb+INSKgZbfcHR1FAFBx2ax+fFfUxxWNpuj+7Jp8AKipD7mH/wP5k5IVwFR262wGgPOc6Br+DyWEEJIuY72yFW726+UVlz3bFr1AxYqo5rTexUK174eqLyouGXpWVbFEVzk/tjISnyY7QJ66LDoPBapPxqRum77CPfOALvWEi9gE4hP+OSf8PX/Zj/nnHPPHZRIrXnfAdkC0XVFcMsDAnMtULNGVFvRWuMLZ23F5vZEc4phdFN7w8MZ6AjXvCs9fUTwyTHnMpmJ9sVHVZ50VK/I2mRXPMd8vjkh1AfAMSqZrNt2bZeyT9SCLLkeo+phUFwAPGDSqB+ZpKxdr9dHV+96PzvQc8/3TQalOBBhYJrIb782y9ORkhxsIoza/6uW2qujP6j1Skju1bgfF2+ivOSztuqJ4+tmTye6iuPOnZm9bzd6ov4cw3KXN94RVrAM2r8or75vdEZcOHrszI0cHMOWpN9+TXTQxLjHDE7B9KNRcjJxCRRPV378zu8gwVvI3PN6Bxx7E8YZq9/NWt+yQgP7Ot8jdQ7X1kQllBtF5KFB9TK4TwalVJV/nNi/PDC88xDvMQBTnnvayRmCq5ujqrL6t687OhXslnlFb1+dYGEQNjsrSNPqrD4q2NngBg4758Yqsshlx9+dkLrSrpbYsY0usYl1ArD2LyplpXHO8SF5T6XUavQmlHwq1IaneDZNxWD90iJoPvPpzewcmFqxfUzx3BIZfEULIeDDmm8C1MId/wpU9pvvP7p/J8Xm8l8m0ogEAACAASURBVHxPvBDc2KR0qGFm4RWV7fv9Gw/FPuMinCYb/hk4mJIFm9VXdkSuCyHyFg06BdS3y8JQtifDMkNdOUNdngsAFoO6MvrPKeE/mcm9y0uON9qLdwvbPIoLkdK62uSNe0KOoXx6tw7Z5ewse5nf5lFyNTAxcLXJ6//krWvru6DrMu94o/2u/VJtCCYt9DLqmoTSXf7oIZqQhdoXfaUHpTpBVTZDXZnP5EtKzZFgsdXnlvuuELxse7l92X6prgtmLQyAwyOWv+Rz9OxNtvfghuM0g6bPQe+p/rJmAwBYP/bXD14TlZxvdRTvEas9ipABsxYmwNkmb9zjK38ryKe6i6LOHwMDAHq2v0ImLU/32DQAqDkR7PuSW7B5AagemBsbD7d12V5vX9Z9dEwMXG3Smpc6altjluKdnWUv81VNin4iUzlDXZ6Dox5pzUvt25wSxgbDVzNMAELitn0JDkUf/JnO8heCG8/LDjlyZ/AISs2RYPHOTmeCwFJxtQq1L/rKjsh2BWYNICm1zlB5XfcsbUO4wwxCZZ7HWgC0iHEXlFx/SuIB4wy1JfrW6+16e19H8R6xpg2TtTCr4QnIVW90bj8de/2kdKFdjTxuZS4AOJqHdJNLXiSviVk5m4WeXaIHoNSeGfwcGAX+T3a+3yHKED2Nr3/cMdqlIYSQsWKs90hYVubZwr8lnclac0KEhnnqXn2pUQUo7n0dJSeU2uN85WK2dz6QqDTZgSdj8R4KVHWAy2Vrv5VtjE7dDihDapPiSu7nSgD3vnZrh1J6a0647dnxRpu1Q1W2PCc2q1hx7/dVnAfPoGJx1qabuiuRguA4IF7V6FOfWLYXyFZbv5Ft0asgCzarv6pDrnbwJXfEbFb9iYBdhmWmtrokU88ALb71r4j2K0JtU1Z3q7ns2OPf2AYul60tzzaGq0cib3spUNUhVtaFau/Wxnx0q1gFFM/JfOp2rZ4BvIFtL/I1glR7UraE61aFObbC8KLh3psBkq3ZkmK2+BXRLkhrXmgvNWkqi3Sm3MQ1eO8hf/lZhWdUm+/OKo90QSieI941B2XH2dD2fG6TOTaoHngX9Z4/kb6CmETzIWIWmhiuWXafF+qFzKKokMF9RnIA3DRNSV7sO3xSlQ+WGdwzK3UGtme3K1UfBEoe1kUOZKvviX2SU0bFip6Ud2XDCV/5Pqlmn98yLbfvOgd34vU/bm3s/+XcWb+qWDC5/9cTmZG5Jb+zvAn2E4GiC6FNN2eWztIkHjHU5q96R3LIUacQAI9/y6uC1SdteCdQu0rX58K07vfzMspu0m1dwiEcVu2VXGd5+wptsWYod5jBGdlSnegIKNajfOmKqOIIobdbAKgq5mXGvkHecgKmKey2u7PMehVksb7Wt6YJ1R8GymZld7fOp3ihXRV2uh7ogL1NAoYxsSyS16TPsOgBaJbPCOCY4jgvusGNuT4JltMxgAwAai5jtEtDCCFjxZjvkRgCjfq33wpHEQBUxlvYcgChrkbvwG9LzHVZATB5UoaxT+r21Y1nuNShACouUseQO4MAVMY+9RchWHNC4YGKZTm9UQQAjcayIqvPJImpkYFc1vZITiShiNGU3sAAcH4uemIX5GUUz9HV3B3JA8FU3WOTAWBfU3cPT1ug5jwA1db7uys3AFiu7HbWArgaRUdcW2nx/Kwdd3RXAfW6spkAYG8dUtvn1Owd3+I26AEZtWeE0t+3L/t9h60hflUh61GZB8qXZJf3JjKpDDfpt89RAaj5NNj37Eh6F6URN09TyQKyvOtodAdaqPaMAqB8dmZ87Fo8V2e9X2cIbxPLlRWpjQDf0uWM7HbFeUS0yzAWaKMGzqr0c7M2TwNkedeJIex23s8fCPX/ww/lSKotq3Jq5zNmBl6vXPWef+GO9o1v+11xHU3OQ0KtDG6q5pk7ovJ5DFmb72EtgLtJtMdd5ryM8luzw1EEAM6sKdcCkB3nhlDOJHGlc1QAHGeE6KfaeI+KVhnQq1fGVZNN+Zy1LNscOdnYomVsCYCAVN/TuZT6hTYMlKd3t5U9F/vzsj/RFZFoybf7dLVF8pqKZ0RmzDPMUJsBBCT7CAzOSJXmhrXfLCwwaK5bsGTtjdmjXRpCCBkrxnqPxBBU3JJdFD0JukbFAYDiDWEIs8eajQx3XnY3hta8IW++rd8G7xSJF70AMgoiDe3SpSDAMJrY2IQ/KVplQMuWzU37YWKeeTjbFDUkhOMYQEZ8x8wUzTN3cFH1VyYnHNF0RRb1numqAzCRLe7TsG1kihg4ZKnhIizRGf/Z7ObYWW5yWRWguPmh1oMm6iofz6xoCVrfF6o9iqdDrnrPv+1j/pn7o4YKNIXHY6hLF/SdhcZUqDY3iM4rsguInUYp6V2URkxmaSG/3anUnuU3L2YjZ+sZ0SYCrLp0dty5l81uXh4bXJgySiDVyF2NHlimAODtTQBQVtinCZwxfUWFZsXeIvLQpNi3dtOjjzcNvlTK1KZlubYlovNIYPunsl1Sas8ItS6hbK5u87KeM5A/6gaAcnPfbgfks6Va0RGSHW6UxHYNmQt1m2NmMlVxGiAEvmsYNqKb/kZNuYO3ipL9jGIuDB840X5WBlBSyMX1eDCbS3Ux4xzyNMuzxTqf4vIAU4AhXGjDwyOgb9igSXxJJFgyFLtkJK8Jy2d03xDy2TKt6Awp+84J5cYxN8ReZ1q6ybR0tEtBCCFjy5cwkACTziGk3IIs2xVfuVOpPy+Unhf0rKp4Bltxo848pIGq7sOdtlYAsjMAoMv6RqcdAOR6H5DRVftGpx0wL8gpMQJAp08BgMnMVXU+JMbk9BlYbs5pSJiZw6n61Ngsq/Iaov4UeAUAQlLNG52xC8rODECGu8+/GaQxA6Obipuqq/iWrkIUnUcC2xxyvVdaY/NZH8uxhDezU3ECyFblx3cjTWeKACe6GlvDNe/egia7i9LKuFBd4hTr2qRaN8qNABTnWckNWAo15vjCx+/MyDLKJW+4Aip7RQBwnOzcfjp2SR8AIKh0AmNo4CjLmpfk7lii8C1B63v89iuwHQtcgqp7FoEudwiAypTg6tOYDAG44bos9MnGMWT2WVhT9rimbNi2oPtDMstm8NZGVB8PVhTqOABt/NttAMM8dmP8qIu+jQhA5FBe8okAiyFcaOkQNyF18k/cG3zJSF6Tli3qjX+4hcYAzsJ+XvAsG+EH+xBCCBmKL2MgkWZq04oJ9Tfx9Z8Ku85KdQGl9oxQe0YwGzU7HsgypJjfdKlZqu5tzFVqz0eNdpUV63kJQMX1KElPyUdQQK4+PxKpFYNgWfOS3N+aI+Muqo8Ig8/xLynhoZ3cGLkU8nSPTeuoa1ZqjgfLjZmQg7XnAajKF6ZU21dNzon52+6WBn6UbyqO/GHnQ5/1//KE2Z9ULkpxjERfKm6qruLRzJK9HSVOxX6CdyzVWAa51hQ+nA6WMUamolKZ57GWRtHRLNS16Urz4Dkh1QHGGZqiVJraJ+tiz8sRutD4hksAsDBv+AYDRPKajEZ1dEOJuUBtPCu5vdK+ViT5jHA9PTyOEEJGzxipPY15eq5oGVe0LDzQObj1lOx0C7/4WPPU4tSmdIk053v9G3cKtUau4UEdEDvfaLTwl3iH7AGSaZwbcnLQVQkXsmdbxgK9ruQrfE1T1FBRDYyAO6i0xu/JFuUoACZj+sSRL2hCTNE8tbFZcjdJThmm46JVBvLUfRNa+iOE4yKVvjuViWMAWbV19YSyqekqIZfFLR2gW4lLW06KyniDutgp2nsztRg9C4g9/S3RRHcHAJgnpTzL0nAxcuV5oqNNefu0WLpEfvusAqBsZpIdckp4qIm+Z/qvkbzQmsTaEADV8sJh25ndeU3us8E5Z+OmKYPy9mmhbIoGiGy4R0yUQCUDwOTsMXPECSHk2jN+AokMcAAvoCO5WvVw0WgsKzTblLbSBtR+IT6FuO8wuePAa2++2BDE5IL13+1nuvGQ4gXQ047mVRqB4ry+x8KQrzY7RKdXertJKc8fvNWtvj16ihXF/WFg25DGl6ckUsiWLocAS7qzmjkGkBU+5dkg5U4BAMzZ3e2p12UUM5JVlGqdsjkmQ0hxOkUnwE3PGOpzplXh9lCel9M2dUGhpuIDaUtAsh0Xl5+ReaD8hmSfWMKflGwA8jKKIm/QWibzaFHe/otQNjVdh2fuqm++mKZVDYYP59mrJk8I/62xGIJohs0ZqJgZO0zirGANAYy6uHCon5X+OwxbcgPDfSDXNfDu6bAFAB1bWphc83m4Ks+qiwsi/xjKhZbMvSjBuwTbPtEBGPPjZglLn0heU/96sptMkxmcl51fiF5wMVdBm7DPB4CxjNQET56T7/zm3cvqwgVr756dal80IYR8WY2f2+E0pgTJzjSfPrLbLXiF2MYwka+/CCSq+gOA6/DOhqAIiJcaXzzQnHitbUp99NsFJJ6kJJ+rnAhA2fKm19YYNY2PIDj2+qOf/2qYlMEB+FywtYSLqrgPeisdyvDHEUC+piIXEKXKXT5nR9SOkmXPBX/NwVD/7xwUa54AANv2+dxiotcFwXlB5Pu8JMuug53bWgCoyr7eXXXSZJYVAEDNgc7app6OG8V90LvpLMCoti4ZcisvWzAZSPZZFkmKzPljO+5/oQVg1WXzkrtO3b4tH8s8UHlTT+DBFM1TmwD7Cf+2I0JMn1VAcOz31V9JU5GvjvdCyO2L61DrCFS/JzoBbhrbnQ7EFM1XmwB3E7/lIN+7OW5f1V7JBRQv4AbLgOrfMNxhItNwBaQt+0QnUDInuVlNvcHq90QHUDyX6w17h3ChJXMviqHwLYHqF/xVHYBGve2uuBHtaSMfPScDMBZoG36Y1/dnhZoD4JUOtgGAvlBdygBt4sb3Qt6eI+4NWd8Q6wDTDLb4qmbCTl7j7tfdFzqDjZ8c/A09R4IQQrqNnx4Jva5iplB7FvYTgTnOgLm7Ta60OK8i9TZIz6GO9ce7v5TC4xQu8mXP8XHrlOr3+qu8AIPIJ8pwCeABLlu9YbBkZ6G/aWG6EF1V8bR3ATBNil8bW/IgV/kHvjokV+3xVYXLECmA2roiasHZmk310paAUrWrvUYLToJTgj6P3cSK21rj1ppmmtL7RIdNsLaJZb9v59QwqQHAHYIX4GZwFUNfM1uySG16S3J1iCW/aTNpu8cE52ttKzMBoF3Y/ifRDvR8aM/ngkHZTbry3lqbylyStfWSv6pD3vh6xxYWxgzwAsKPea5cnl2aXDZ2QubFmtJGoVaQ1uxsN2gwJTKtrWbHI1lDbtiOzPnTodgBY746wTDrMK9414624klqUya8HVJtG7xAiSVrw6zeN3CzMrdf9JU1KDUH/TUH/ZHdKMEpAVA9dcNQi5hWrqPB8qYggN6jHCkh9Hp1zT1RNdqZ2dXNHaXHFNuRgM0RMGuALjhFADDP4J659Sp6XdJ6h4nonobL3gFAtXJWf0k4Uvmv24omMpZshvd1/emK4pHjN+eqLrR+70WA7YO2+o8AdF8RgF6vfub+bEuC4Fp5enebte/ZqK5al5Nah17keRr9JHrNVld+IG0XwylhLPJ0G26SGg7L9oZg0elg1D0QXC67fUXCaEfa/Fxb3P9TL2eMzFw90A4AF065vItvHKH4hRBCxrbxE0hAZb47p84Q3H5Csvvg7G6AK0rYVj0oXnH2acKTE65TVWBkShrlRqH7VQbmbKZ0rrbMwukTVu9Mix6fczmcTvCd4mkJP7xv5NAFAImfcaTTbahgSw6Fak53bzWDIoN67VJtzDciw5WXKdw7oadbFFcIelZVcZO2crHWVRv3qOrhMDFr8xq29GCw5i9yfQhOKVLIB+ZzpbOuLp1mZo4ty2+1i7YriqvnePVMIjlB/UB+F39J7pR6j51JqyotYMtv0pn0sTkkjKasXLXQEaoOnz8iODVKprOVy7PMVzmlb17WU99ilnzAW5sVZ8+Ul/3MiZksTWbpdN7ahEQPL4vCgJNR1yLVAZwaxVPZx27PKuo7o5HadEeu/esB2wGxtj1y2hs0qnIzW36jzpR7VcVMl/yvqct90tFgdxwIcOrIKVQ2p88ppDIuy7VfH7AdEG1XlPAVYc5jKhbrSmdeZa58Wu8w3SLDPBI+TzCKHqj3yPUeGQyKJqr/dpG2tCBuc1K90JK4FwHwipFITM+iZDK7cqGmdGa/l22CSV1TxzeINrn/RC8ms/hroe1nUdfIe5eweqiMi3Nt+ZH7QPi4mLKZkllcxWJt4psw4LqartDEpq3+5uyTvzmVTM8OIYRcO1RdgbRNCW97pz5Pn3XH4rnpWiEh1yq5/pWONc3gpmrqV2claHMND9DXs/uv/jHMZFi5feW7RQdUm1flJhrpFH58u9r6w6tpLCcjo3n3s2/taYfhlru33tFvYEYIIdcCJjOS9TF+xkgQcs3gT/u3NANQbSoavjx1MgKE2vdFB8BNZcuSmC+BjGXek8f2tQNM7l2LKIoghJCIcZTaRMi1QPE2+qvek1yAZU5mMrN1kTFKFOx/9ld1AAzzzH2JupXIuOA/s/vdxtNNrY3tXWAyl37znttzBn8TIYRcIyiQIGRMiEwAEDV0uPp2qnyOR8Ga50K1QKsAjwwwqq0P6IvHzENWSMqCl48eb/ZkZRbcOOfbxfOvyxrt8hBCyFhCgQQhYwPfO3S43JIZN8iYjBfKpRCcgJ5VlZrYyiVx4/7J+GJY8rO/XzLahSCEkDGKBlsTQgghhBBCkkWDrQkhhBBCCCFDR4EEIYQQQgghJGUUSBBCCCGEEEJSRoEEIYQQQgghJGUUSBBCCCGEEEJSRoEEIYQQQgghJGUUSBBCCCGEEEJSRoEEIYQQQgghJGUUSBBCCCGEEEJSRoEEIYQQQgghJGUUSBBCCCGEEEJSRoEEIYQQQgghJGUUSBBCCCGEEEJSRoEEIYQQQgghJGUUSBBCCCGEEEJSRoEEIYQQQgghJGUUSBBCCCGEEEJSRoEEIYQQQgghJGUUSBBCCCGEEEJSRoEEIYQQQgghJGUUSBBCCCGEEEJSRoEEIYQQQgghJGUUSBBCCCGEEEJSRoEEIYQQQgghJGUUSBBCCCGEEEJSRoEEIYQQQgghJGUUSBBCCCGEEEJSRoEEIYQQQgghJGUUSBBCCCGEEEJSRoEEIYQQQgghJGUUSBBCCCGEEEJSRoEEIYQQQgghJGUUSBBCCCGEEEJSRoEEIYQQQgghJGUUSBBCCCGEEEJSRoEEIYQQQgghJGUUSBBCCCGEEEJSRoEEIYQQQgghJGUUSBBCCCGEEEJSRoEEIYQQQgghJGUUSBBCCCGEEEJSRoEEIYQQQgghJGUUSBBCCCGEEEJSRoEEIYQQQgghJGUUSACi5PXJo12I9JFlr1ca7UKQa8aX7PIJ6+o8tuP//OG4MNrlIGR8UXifyIujXQpCxhXp4p7/3vrupa7RLsdQqUe7AOnkeL2tvAkVK/I2mZN+T6tvvU20yzAXZtpWaoexcFdL8Rzz/cIhHQzAIwOAQYO1t+dVFMYuJQS2/46vFqCfoql7JEsfv5pW3/qXRXv0f/K5hlW64Sv32CbYdvqrvKqtj0wom5Lymz3725cdU6L/k9q59yUw2OUzPneR0PDfP9r10qe4sP/SvDsnj0oRnJ1z9krX9rVJxh3Z8UZH+XmAYZ75dm5JXvwCgW3P8jXR/9Cz+x/PNoxQ8QgZmy5/UvMfF977/Ndd//r9qjsnZ4x2cVI3fgKJjoC1TrCJ6h2PpvO+4zkr2WUAcLZIHmAE72ih6t8Et2f23EYD257la/q9q0qO1zvLmwBAz8KsAWS4BFyKb/g511UjAIC3VXYBlvg1aZnlM9Thipy3TbJ2DFxI2XXIX90gmRblVY5c5S9cuQdYte17OebePjPFuae9rBGAauvqCWVTR6w8/dIY1JUzwrVk2XlRto/ldrikLp+4r/leausPc+JPp0EvnxR30aicb31d2vPkH176FLf8/Ef/FBtFRILwRLsiXO/vZy+NEtGxN1BzVln54ITS1IPkaPHRYJwhhuKjZGh3GN76XGBLCADKb83dbInvzO/v8uln53gCNe8KtiuKSwYYFE1Ur12qLTay0YuEm8aiGTSqlTM1379NZ4hZcFjEf3qPfpoDQvYLAABZdjQjUSCRYZmh5sK/+rqqPQOfVMP1pT+gAe6B3cZdeB/fetgjUuUQa62+jW3g8rmjiTdNrPuD74krsJh11hUcBrwnFM/P2rFM0+9HMyiaqF69SFta0H0Gy7z1d4EtAXBTNfWrs7j+y7/h7gmrmzuSvReF78mJ6lSRwkcdxwFvcb139Z7FSm7KfmZJgks1wXUhCI76YM1f5PoQvAAYmHOZcktm6SwN13sLmbT47/4rGPzOu/v+z3995bf/e/2CsdykndD4CSQudm1pUZCgjf2qGBZqNpzmt4dQZtaMbLuI7BWBHFXkgrsiuwDkMonLcD64uQlgVJvvzirvufygIL5aVsht/USquoKFs9jENTG9rvz+yK+e/e3WQa5J6ehpqdaHisE3ZxiIkt2lmAtVkT/lkD3yraa4LgNjIJDQz8neMCf8q2Db6R/TgUQql49BgynJ5TwOevmkuItG9XwLc+38r6f2IPPxh6ruHY8tQ1HEOqdcB9Xyq18TpzJre28UvACXDE4NU++3h0o/fr5JeqV0h2kSbaHIr1ZXcJMlvsajmqxFn7uuO1x76Etxf9hR5lC8AKeGWQNeQL1Hqt/tK7FkPXOrpu/iDMzh/3XBKShWJ289K+5YnVucoKaefrEHOmJy4jAms2yBsOtTRchmS2cmXlnJ/VxJ+FdnZ/XewVJwh+dLf0CxB1GGSwAPmLToPdxaVaI3jgMxWxEW2Ra2uECFIwr/RZdThjn+5u8V3r4CQFVaGLuCnjMzymQuwf7p+U5pDZ/qe3zW7pgEDFe+TLC+JblahJqzusqZfd4u2e2iHeCmaipmqjqvDM+9KOoW1yrAI0PPwtj//b+ugXcvYY2DrFTxOLzrD8rO6MxfGc42ueo9v0vRxIQcGV9dXvVvn69b0/DSv7y6+HePWuJ269g2Hm//aaXTVVboKkf+c1tlF4AsVeQmKYIHjFzi6punqcsF4KuaqCgCgArxd3NGU/qopjTtpR1RCi8ALIwiqhuClYWRNgP+uFAtwqKDIzC6xfvSU/34waRbl0fr8hkmXZ+/9ct/D2FS4c/++sbM0S7MmGFYnGtb3PtnuO2tyBzV7jjODOUO4zojOgHzRBWuKM4WqV5Acd+tz6xYlxkbAydu3uadvkqH4mVQuTR7w3wWAGTZdahzwxG5zuHfPkm9YVbsF8F0ztbTTuzxb3lVsAryE3sD9Q/rEjTfplsqB1plvHXC/luHtzzDLPYgdndCblk3dnoah2ygrdDPUpccEev6hNbdvKekWgA6dXGfunP0mTmQqO8UWXS+7y9vUBzOoLWQKw+vcGbmpqOd61uw/SP/6pmxHQhng9taAEa1tTiLA7jhuRdF3eIi3ZVlt/WbgluUp7rYJtZ8Km9eMFB7G+/0rflQdgF6vfqp5doiI8sxgCh5moV9R4VL8VFK5oJvbFx37m+ea3hqZ8Nv180ZVzdXGmw9Snh4gKLc7kDuslIPFOgGOhxFE66RqK/LHQIy1SV68BfF+sh4V/moS+YZdVnBeG0NImOf74P/OeAEFv/NPYvH1V2cpGYIdxi+/hwAlN2WWaYFIO87OdQJBmTeVi+5gOIFWZEoAgDDmJbot80EgOoPA+4B3m7I2rCAAcB7ulxDLAEhcfK4lXkAYGvk416Tj16QAVhmDNoGnwSGNd+hrWQBKI7Pe3qo1cXFbDEDeMVfO6L7qcTaQ5ILsMzKvMr8zDTi8tkyFtaTgUSdjd0C/m37JBdgyufsj+cUX8dGWolZteE6XdmqCZWzErxJa/nuXXdMwhf/8eabnw9L0YfNWK+b9k3T9IrLnm2LXiBxsqY3VPt+qPqi4pKhZ1UVS3SV82NrBimNOZZF56FA9cnuLDfAoIHpK9wzD+hS73SNbaM64Z9zwt/zl/2Yf84xf3+Z1v10VyRaLa5uEFvczqnZ21azd8CVy6LLEao+JtUFwAMGjeqBedrKxVp9bJkdr7eVN6m2PjKhzCA6DwWqj8l1Iji1quTr3OblmbELq0pmqGqOyW83yEULGHiDu5rB5WcUMV0ALvlE9HbHKN5Gf81hadcVxSNHchArluhKCxL1vnsCtg8Fa7PilADAoAES964rXnfAdkB8/orikcGpUTyNrbw9y6wfkTBGFOr3Bn/9mXxUQPimbtKi4Ou6Z5bFtT+KguNgsKZBrhMBwJTNlFkyK6JO9SFePoNK75D9IZxvg214WCrnG4DPD7z8EjCpcHUaBlj3frS2917EqVVl5sxNy7i+BzJ8+ZyQ7L7uPNqEveqy7G4M2o+KtiuKUwQAPasqnsFuuC3L2LPvI6M1eihVL7dVRa8k/kgltzOT4T3YXnREgZatXZdt6vNa5Cj3DhgYyi4a7A6TiuTvMN15Tax6YT4HYwBnYTsX2mQZUoeAS6gJAKx6w5I+e1hltrDFZ0V7QKpvhbH/apM+mwFkdCG+xjda4kZTXNWYmdTvWkndrsMJ7hUr8jaZFc8x3y+OSHUB8AxKpms23ZtlTHXMSZvvCatYB2xelVee3+e1SKt272iB8MmfzzWsyuz9aMCUp958T3bRxLivFU/A9qFQc7F3/Mz378wuMgzrt08ku8n9meiENmbvCsF9LQBUZTekqwOMmZwJiIiZXXJK1qZZHfYGxfpxsGxBZOQS7wxtbwNY9cbbRqDvLXlsaaG43SnVulHeT2jlrhetMqBjt5emdJfIWfzId99579/bXnz3zP2PF/afW9V84NWf2zswsWD9muK5Y2DfjPVAAlqYwwNPuuAUE+TkJUjWvOR7Yp9YJ8OggVmBU1S27/e7QqqnFkctqo5KhZTgHCBXUxZsVn9VBwCYHC1nFQAAIABJREFUtDAikjdZ3y4PaW7IyGiz8EBni0FdlA30/DlFXaQDwEwGPIc61h/vbvSSAKDe6S/7iz9qVeqq3p7KqM0J76irEbVzEucL9kkSlYXaF/0b28CpVWUzMvRdcv1FueZI0HpWqi3PNvb9pldcrULtO+HlYdbAJSi1zlCDoKq9O2aIUf4sdfEx0eYKbVqg451iLbBhTqb2CwGAl+/JkpScb/nKzyp89zB0XoCzTd64x2edqa25OzPqElM8Dm+4qxEMzNre/Nc43RnMDIonq82ZsrtVrm0S617o2PpwbtnUYY4lAoFtL/A1QnchAXTBGYKrLW5muEBg+x/46hD0OqZiOsMFu3Zdkrft99vOS7ZV3TevIVw+yUj+8klxbUmdb8lseK9kzzdcOPSpE/jKd5ekLT9VcZ70vX1KtMvQszCr4RIU67FAvbfLdn9UOQO89ZXAlg4AMGhgZsAL/VzCp/wleyWEE+sjJ7BSe0ao/Uy2PpZjCUcHbPcR707Q7zvi5ap25iD0N2rKHbw1JNadUUyxCRLuk5IdQJ66JKZ+mdwuSu0Ok6zk7jBAd16T8WusGUC+mjsr8S3iUQFFqZ8pribJDWBqRoJM9Cnscq1oDynOi3JZv6OUFJdbAsBNzRhDk59p+5516VlbUnet1G7Xrsu8441AxXnwDMxauEOoaxLsu2B/NNEkhwPI0z02raOuGTUnguX5sXmQbsHmBaB6YG5sudu6bK+3VzVF7u28AFebtOaljqfKYqZD4J2d5fskpwyLganMZrxtks0jrXmpvWJFzibzMFbYerObzsIcNcSFPylZAejVy9PVJxAQHV4AquXXxaRqm27TVJzlawRp+wFhxzJNuO/ODZQu1I61IQPGheoSp1hzPFhuTJgCy9sbFQAlczhTqnenWYvMX8EnX/zuY+fjhfP6Wcb/yc73O0QAnsbXP14wd2luip+RfmM9kLCszLOFfwu3tGWzOwZraK85IULDPHWvvtSoAhT3vo6SE0rtcb5yMdvbSDYxa+u6rPCvA89J4j0UqOoAl8vWfis7qtFC4QPKkOLAyGgz9752a4dSemtOuDHD8UabtUNVtjynpxXHwyvOUMw7+YFqbFGZnX2bJFPXu3MGzxcEZMce/8Y2cLls75e6yNteClR1iJV1ob7VNcC638/LKLtJt3UJB4B3dpbtlVxnefsKbbGme/QIgCncA3mivVmsF0RvowJWXVyowhcxq/Ie8pefVfiYYeiK54h3zUHZcTa0PZ/b1PN13eR/4kPZBZQvydp8U/dtSeSt1sAWX8w6+dPhDGZV1PeQsmFfR+kJpep135x1OQlqAGmjOPfxNQJM+Zy1VBfV2qrwffO2hdpX+OoQTPlcT4Vvgzew7SW+pomvOsSGw+YhXD5JSfrySXFtyZxvSW14tEHOt25tpw75ANw2f4B2oFRZnSI0zNY7dWUFLKB4T/jK90mu84LNretuypLsfw5s6QCXy1pX9bShKvyn3oUfxCXP6FSblugemKcxaLqrRx7/llcEqyA9Vc9HRi4W5tgiU0KHeykHHvGS8s4chEa7cipvbUb18WBFYXQcwtvPKwDKb+jbi5vELkr5DjOIVO4w4cKH85pK8jkAmJ1Rvk+qkbu7MlKjeDqBfvNUmck6IAS3TwISVZ0E0Vkf2HQGYFSbl2aOgYbIiN77TDKzHiW/tiTuWqnerutPBOwyLDO11SWZegZo8a1/RbRfEWqbsuI6FgbGLDQxXLPsPi/UC5nRIaX7jOQAuGmavvNW+aQqHywzuGdW6gxszzmsVH0QKOkZ7tLqe2Kf5JQRFTYoG074yvdJNfv8lmkJJ9VNkzxuZZ5Y14a6C3zlzJ6TSz56TgZQPCMts9EofHOw+m3BBpjyNWV9mvM1ug2LROuHsv1EsL5Is/BkaFsA0LN/m+pdaATk6R6b1rGmka9tyyyNPyKC5AoBwJLpQyj57BtWTvrkfy6fO34K82YnXoTldAwgA4CaGxNTgoz1QGIoNOrffiu7KPKVrDLewpafEKyhrkYvTKmnIrkuKwAmT8qI7fpUcbqrapm+1KEAqu7+e7kzCEBljLpSDcsmNCyL/B6uq8XMqjZ2tAVqzgNQbb0/qmmQ5cpuF227RUej6JC1fWZK5GWU35q92RLZoZxZU/6RtCUkO86huCdxMJcxRDpb5X0f8ZfaYJ6jMQNeTgUofKSKFbIelXmgfEl2eUHPmawy3KTf3tFR2qDUfBqsNIfbmeT6w6IDsMzR9UYRAFhVXMKYWHdEcgEllqyo1iyVcXnmpsbAloBUe0oxm4evU0JqvAwABVPYPoleXJ+8oTP89g6AVW+L7jnV6zYsFq0fyLWn+b9dzA71vq88vbvN2me35GttK8fG6OPUNzyp8w344tweAJOvT0MacK/Ye5F+rrbymG9jm7LvnFBu1ACAO1TdAjDMMw9nm3sPsYpju78oos3IrpgR+x9DVsUs0XpCcXQO6VFG6T+LmKJ5amOz5G7+f+zde3xU9Z0//tecuZzJTDIxZLgmYEy4JBEIUUyoSpBitGKs0mi16U9qqpbs1sp315/s2sVv3YUt3+Kv3cXaLWhtLG4j/DRSbYDVSJUgLeFiCMIkGBJCGC65J5O5nXNmzvn+MTPJXDMzYSYJ+n4++IMkZ85tzudzPu/PVagzoXg4vz3HV1oBRlGyKKDkHfYWRZ/DRCSiHAaAp18ToyjOlgEAo142lavshKspI8rSvGA0ASH7qSr1WqAv4NcXuZzfjDSd6jTMy8W6kng3jXoEtITDtzF8YkWdXXMiinI0r3zT8+6drvn+1MG6Thy8KJTNjq7Yxy5SVdTbtwniuyeFwpHCrr2mRQJQlh0k0itaqNmxwvNrJVtayG//yGHsdBpE5DMAJMMJoU5Eeqbaq/FBpluoffHLwSeuiO+e5ovHXgZwvPhGv/8p+WTs7t5NhvNCK1h3rStv/6gTgOyeBcGOe4krfcO/Ub+kKGB5K78OlgyK5qlfvjvI/WHzE148bdloErd9Zi5qFTlg/Te01xTAmIV1b/T7/zIGC/YyhYsVWVccVSe5kpUB1zEgGQFAptMO/8pW+Ya9xmuTYHfJbeZNdwO77W09ZiAx6Baqm3/43YFXP77gSLvlh7cE32ScfQUHW5d/Y/i1BABQyVgAkEz2UJ8YTW46wwLGNvsTey2tg9dW8zpCuGQCIM901xQ6um0Aw6iuw2/D1OKsBTBF6T8XYTpTyACio+mS/0dy52mGS3UAABmrAgAuoCyky1WWAFWnhVrISuezcPcPRv2gAwAuOmoFgFGU5PnFw7KseYpceCbVBQD7kQh7eZr4g/0AmAdy/V4qbM40AKi/GtfVjpVL0mQAahvMGz+xGvmQz5uhzWF09bXwfWbY2fJCACan4RpOs4eHwe73L1ZP/rUaw4VH9rz1dp0HAH16agzP1j8v8ny/df3uV1lPh6MBwCxl0VgHmKRfwyS1cXmK5qnKNQDEP490z5IMLQ4jkJ6hCCzxh71FY8hhIhcmhwHg6deEqYznLjGFWQwArtNpGJ8l3TVMRYaiXC/TAVAxm1e7GtvHCecIzA3G7eDhjCG7nqYaiSIAgElyT60bfRbHJJTMkwGoOceN9OZqEaoFQKkoyQ74jhKVL67wfQFlyYsBiM62HtfPnGsC4tJ5frU2TNYMGYC6TuFaBsa0BnyPfhm7boGiGIDdUT883v+cs1oM3a9JDPJsBFneCihKV1RkMEUKAMjPVL9yT+AQNRdV6TcUWUBDk7CNR3o6W+4/G2yUgp3htfbFdZmrrkhBQwsfOhOQsSMFE6k7grvkkjhlKgCYh2yhD67JumPDurKflmTrJ0eh8avYIsHEMpNl87TVfeYyg1Tfzpe0867RjeW3aHLHNPLJeGyouguAaLACcFbtHaoDALHeDMidNXuH6oDcvKTimNaKxhXv6kxsd1TuHfL9i2iQAyKMQ/4f0Sf43TpV6eOq0uGfTFLb8P91CQ9M52s6g008B2BIMgBIlM0OTEtpTCFggLOtC/nTgC7XXM7yzLCrT9glEwBIHx0aMvj+xdQPAAZzfFexT1+h3WEyP2tEtYGrNnB6leyBbFVpXkKW78BBzvU+6ea27fXLkMQhAJC6B4Axdmmd1IuLjeHCwzxvcRWQF6ldz6pFMgE64GKPBKBoSsT5sCj2GO2GC86G4ZLLNTyQ8XmK2JIc26YT0shU6+71GWTli4I1aoW7RWPIYcKIPIcBhvs1lWWNVKCyWYqSv/I1oqO2WcqPrn1SMTUBoccQCD2WYL9OVa6/XwNgvWGo9BPHs/ssNT9IjLrv9VhN0pZwlzFk16zMrzIp/9spTWM9vquvfG3/8LhbyXDOYQTy56mC9IBl4N8Jz72N1G1yJTTRJABAw5mhbWd9t3T1v7VJQwhYCyJSESyX6e7dJNW0cGXpLCA1nHNwQPE8NnizQKRzbMju+UZS6TTPiNNz9q3TlC/mh8j05mo3GQbLLgIMs6Homic4HmVBumulLL6ZYT9zVDc6cv2uxf2TZLLDswqKZsOPNRuAkdUwv1q+ioFEjCmyVt5QfytX38i/e85Ra5VqWviaFj43XbXjAW204WD3Fcf2kfkopJp2r9BYlKraHQDKb0JxbM58HFnF7e0xqp3j4TX7IVM4j2E7xaIcNrrYyiG5ykjsGB9w369mPDHKogdTTvbYa77gPmoRa3mp8hRXeYorztW8vNJ/KhvjoLh9cHwqRSeXSXrhyojf8RrZGFbZ4trNz+8XamN93TG/me4h11ahpkWqmCdDs2O7AKQoSqJKw363aKJyGPc6dMwy75K7TrUiha/pR9U524bcqNqSGH0S0Im6vqCjIJytQwCQlRq84M7mJmwwDK3rFKoaHSHLYV9HE5ddu4dcS+5xt6Ktph2ArGxJVAVg2dQkn5/rjI7gC1HHnbt3U4NR6AGrF221lwDI7lkQo1EKjKp0BV/9gVB10l6WFyoYZvLnKnDRgUR5/rgsuThm7r5tJ+3l+b79i6YwuQzqRKm1R8K0r8WE9ZQZRUbHFi5nC5cDPN9w2La5WTQY+V8cV0U7GNFd+WGyPP8WX5PONj2oAbznhhtr/4YJ5OpYMXwtscbmJZ/MC/itq7ZShXTAaJO6AP/6kk7pJABGnjYFAKB2FUrEHhN81kkVJZNf07c7QTBv/l1y4QQ2GurVJSvVJSuBQa7uM9vz7VKtwVo5m60YnkxDDgCFC7VvrpislYVxEq8LT02ZAxxFj7EXi0L0bnI/G+IQH1AIFEUASJCFrb4fFCQA6e5ad7hCwzarfxGZswUUmnnr1v1CrYiiueyLyxPSh8doXcvkCnG6maqE0gyuqg3V5+wV89j6ZgcHFGeyEcZOfrdoInOY4X5NEJ99K6CnNcBdcja4e7dHKmsag3MiOp0G+C+DDaOjTgDALAu+LDQARVGeIv0jx6jlsK+Tic+uPYOCLjoMIrK+EKpEIEUR6aLjvKvCS6bztNWxDCDKNj98Q2nYxvP4cM/dZHIc7ELpoLM2qsuJxGy2LEVo6P9KBMNMwsM53LZTQs05FPr8Qb1sOrf9Cmov2DfkRj220NzXDQCJSZNjVGJErp+sSA4WAI/BiT0NlSp/ZfLWBQBQczVYNzdx8PB7u3/y72/+5LW606H6M7oaZIcjVZPUBhSlTMJEJXOtds9xIesC9bMVuQA6nQ2xGjsgigBCTkXgegwcEg9gjryIAQRHjX8vRclgEAwAmyZ3t+Tq5FlKAGKD0btB09FQY93q1993inKFa8Gp5nhUeNva/rLnJ1ve/Mkr+z7tjuwTyWzR/bqXpwNAw5WRW5w7iwFQ38H3RHjkSZJ8wgj/vEV94RGbeeMqAN3nQ68GNkWRrwQgGi74NYtLhosigPRpijDjAkWu/gIAlGa6KyzTUxgAxi6Hz+V0mp89GnAHzjmrRECt3HCvJt17pgdHyHvFMgAkLnSv6rjdTFnuImU+YGzn6wdtH10BGOb7t0RW5xJwi8aUw4ya0CLPYTz9mkKfraO2OXQfiYtiPQBGnun1WLBZilIGEBzVDX7hn6P+hNAAsDOVo80q6xqCYhWqGoNHjz1nPv75K1U/r2numXwtdlELm2vFN7uOjOsbERzVXwj1LSIXbGqyULgzjmoAKfJC9wfU+VMBSB99Gc3bdODMjlferNjy1r/ubwu2JnuU3CvTSQfbBNcYqsirACKjLL6ZYYGqk/bW6/8R1ReqyhhUt9h8vzCmcJEiHTC2cdWdUfeh6r7UCCDx5sxRhlH3nPn456/s3rp/siTz6yeQmMkUA7ALWw+O5zo8otHIm/zGvApc/SUgVNG/9dhbTTYBELrbdh2+Enyv/VK998d9mtonFWXmVACoOm6pN4VID7NV5cmA4Kh412zwHowuij0dlsojUY/L6+mXABTqQoRVKbKR0F+VUJoJAJWHh2ouDqcnyXjEtOEcwMg2LxuuwlQXZwBA5QlLqyuvFfi694bKLiLL/53N3pMjY4HKg6aqc96BosT1c3Ufma9pNdm+07v+NiiIEIa6dn1yJlgYKhg7BM7vDyb7kT4AyEodKYqxNysrVIBJWPe+xWdMtuAwNpmrTgXse2KST7TCP29RX3jEpmbnqQHsPd4UctABW3QjAGz71FTXM3xoqeeEaUMbwMjW5486D6koNNTatlrBJisf9qyxoMtWlLrWcz3hOnPJ1GZe955Qr4B/Txt3ocrZ1Oc5NM/X7x0oPBTqTaLMvQEAth40G0PclfjdTKSzZSmAKP7+z0IVkJ6himjJhWC3aCw5zKgJLYocxijU2AHIXi5Lafqx3z/tZh0A1F7wnEC7ufIUP5J4Ba76oGAA0tN8l4zQacoyAaDqiLmqzbO1KBj+Yl5nBBjm5ZWj9wtnS5eMUg5re/8DY8cQ39F45D8/DfH2uY6Ez7XimV1Hii3JkQGo/sLyx05AqSgNnJosKKN503GRAypuHQ48mMJFiiyg7rRl6wnepzrFyjccMtcHzugFnK471jAEiM4rnx/b13mN1wJAuWy2DEDteWv1BcSyX5MHu0i9YdRg+HqiSijNgLGd/8gv9JuXsHU2AGnje4PbTvGha8YCXf7yUDOQPT93VuhtXMnc1vb5kdeOT4q6wUlYCx6CTlM+l685h7rT1hyDdXiFmlFm0RpF4HJv3hOZee3TUf+JZaPJa00czypmbKJifbh3Ix+qROK7KGnPgBOh+8VGpGWotM6TJl0H9Zr1LGdR4mZPF6yIL9wtt0BV0sbX8I4n3hoYWdlKp9rxyPCkbKqS1UJDNV/VL5T+9wCrQJYC8CxLxGaw5WO/qtBE2AFAllus3dxt2TgoPv/B4CYl0uXgeLhWA61Ykei9yk/WnWz5Ba7SJJT8oT9X5V74rDhf+/0eyxM+a7JCv0z7ylXzuivSpg/Nm2rd37tnt4qqkQ2F2nfM2z2jprp4AKj+rL/+b65fhJshMXjOIlT9mauE1/PmWV4wa5rqh97DOlWaimLRsF+oM/LFr/PuFdw8D2dRPlvmt+OJST5R36Lwz1u0Fx65rFW3LvjV4bNvH294PGdp0MQoy12uXn/Vvs0srts9oPN+3oCyZdqSgI5NlZ/01x1jivQM6xTrr4gNDrBqReV3vAb/6TQVC4WaU1LVEXPNCaQDBgGsWlG5SrZ9r+BTvzBPWVHn2MaLz789sF0N1nPJuTqZySQFq4lQFt+myPrQ0TooFL/Wn6X2jN/wnvAxfjfTPRJRrBuUAJTODRlihb9F15jDjK3GToTdsyBAiK4dquJ51o0nJFefllwGsEpbD1m2HrK4nltXDsOqFVvv9gsMZLnF2ldMlme7pE37zVsVyFIMZy+y9Xdrwy4UwOapKo7Zt1mDdg5JSNYBAwDQY7xiwsyY1iWH4jO1pRHwmULaO/FG/J5yiyDXiji7jiP3oKBBqQ5In60IudCQSbh7R39RqiIrAaZBR00/TEBxvnb9gpEPsAsStl0ylzZJlUcslUcs7mTrXkJK9vLNo5+Ic9SJTYNN/+rzKnfTL1AUnRLq+sQqhOvXFGz61yDfox/GPR/D5Omh5/1Gi/JVLstdpMxvE6r8QzhFfon2lWrL813S9kOW7YfcX+Xw+yKkswdOnAVmrL45ZP9GeCfzjuZWU8Et45LMR3P9BBKQ5d6bVKu3bTvtqDOPzEBXOLZas4Dl3lzThAXsU5aZzhS3iW28568MchOZkoXq0nw2+PxlWbc9ntO7q8mGqZlri2YGPbh/5OAERmlqj4QQMCWf1+XovVdpjfTCPVK0Lz/KLPuMq7oiGXi4u0CofGuLp2hffEJZcsRW+aVY75pbjUGhXvHAYrYk6OTT184sdQPpABhVaZlsSYN9u+upEMAqUJymrFihzU32HeSk0Wx4VJa+n/ttn2SwIyuF+adlmpJMZcMHAfOkMMqi79xwqMny+wahbtB9c7ISmYpMZWlhglc9sWQKmAnRJIy6rPiUhY99w/gf9YPQTitddXOwvFaeP5sxdIut3s9bClOWn1CaE9B0kpG44/tc3RH77y+IJ3n3tRdNVz5cwBbNCdz3hCSf6G9RBM9blBceuVl3PPLQ4c1/anlz35WlDwVPupqEiscVhYetlc1inefQxVOV379LWxhsGjcdg1az2GoW4XqEFrDlBWq/FULSlyfXaExbT4i1AloVspJ5qn9aqdH3m/33xagrHkX6p/btl6RWu/vBKC/QlOi4de8IwZs05yZVay1VdUJ1n9Q6/C3Yx+dmgl2kLPsrVykCGmXJvJAjDiO4RdHnMOETWjhmqRtcU4hF9NxnnqssOcHXCI66Vil3ngwZqh254rttYr0dBkCnlJVkqf5ppUYfeHhGVfyI8tAp8y8aHHVmGByujZUVyzR+k7MFxySUzOO2GYKWw2Y+/N3sM681XwHAO+M6U7UXqdsOv0mTeoIm3sjfU24R5FqRZtfxpEooSeOqRpmazH2qYEXUdjpq4U5lwfINRdY3k+vmW6sPCzUD7mxWr5KV5SrLbtFkBVvCeGHRbfntxxos8plLlq1OG+00WwNb71TBGn6nqe7RCXUmIGy/JjHgCw3+Pfobno9hsoyUCHijhXlPeUtny6cIDYGNRYyq+BFlndHnq9QpUThF8UCOqjh4/R3/+f4/2IGpj68edV1Ur2Q+Ocic1ovht4pM9cf1KTrtNwsWxmqHhBAyfpzNf3rye593pM752Z6nViSF3z60hg/6yy6ifOUoS3R/1fHWTW9wVSLKbk8KWlagWxQfXe//dt/+PugK7t1aHDwcJrEm1r83+MQVsNNV9Q9rg/RMc82nEmwqUkKGOQxvbH3mVfucfyx/4/GbwtQsX3n/Nx/uH4D+G/du/uaEJXPGE6pPglYlQgiZDOTZJRueUaO3Y+uWg1cn+mSub2JDLVclAhplmf96kSSOTGcaDvYBTPLqZRRFjBPurGXTFQCyDYXXvO4B+dqyNb6z9VU78nKeezRcFAHTmVMHBwAm+e7bJkUypyyeEELcFLlPPv18669f3n/gn7Om/fbJnOtoBr7JQxQMBy0V7QBkL96tnQx9oL/6LC3vH2g7e7GrbcAJJuGO737rrmtqUSMRkkxtlo1/cbQC+TkJZbO/FosGkNhzXj64+bmmDqif+ufvLQrdIXyyJnMKJAghZMTU+176Xsflt3e/+vbWjH/42arJvSbSpOIeWz8y4cFyLRWtxomt9+QXV3oSEjJvyXmsaPEc7USfz1ede3iuZzKM3Ax2+13UGkHGZujUjp8e+Fuves2Ov3s0e7QNXclcO+mSOQUShBDiTZXz1K8fcm5pW76coohouMfWuyY8KL9dmx9sADqJC/2yn/3Lsok+ia8T1/Dc0JNhEBKxpPmrVs2xPfXg3xekjN6pabImcxpsTQghhBBCCIkUDbYmhBBCCCGEjB0FEoQQQgghhJCoUSBBCCGEEEIIiRoFEoQQQgghhJCoUSBBCCGEEEIIiRoFEoQQQgghhJCoUSBBCCGEEEIIiRoFEoQQQgghhJCoUSBBCCGEEEIIiRoFEoQQQgghhJCoUSBBCCGEEEIIiRoFEoQQQgghhJCoUSBBCCGEEEIIiRoFEoQQQgghhJCoUSBBCCGEEEIIiRoFEoQQQgghhJCoUSBBCCGEEEIIiRoFEoQQQgghhJCoUSBBCCGEEEIIiRoFEoQQQgghhJCoKcb/kKLFwtUf5z4/6ezukfr6nYMmcWBg/E+DEEIIIYQQAoC54QZ5sk42JUWuT2VvzWcLlzJabdhPjWsgwR05an6/Rmj8QnI4x/O4hBBCCCGEkFDEgQFxYAAXOgDYav8iU8iVSxYnPljCFt42yqfGKZDgT54aeuMP/NmW8TkcIYQQQgghZGwkh5M/3tB3vEG1YF7iU0+weYuCbhb/MRKiaHq9svefXqQoghBCCCGEkOsIf7alb8NG0+tvQhQD/xrfFglxcLD/37bwXxjiehRCCCGEEEJIXEiS5Z33hLa2lH/ZwCQmev8lji0SosXS9/xGiiIIIYQQQgi5rvEnTvY991PRavX+ZbwCCUkQ+v/3JqH9Qpz2TwghhBBCCBk3wvn2gRc3SYJj+DfxCiRMO96gtghCCCGEEEK+Mrgvzgy9Xjn8Y1wCCf7zk9YP9sVjz4QQQgghhJCJYvnTn7kTR13/j0MgIYqm1yrDb0YIIYQQQgi53ph2/BqShHgEEvbP/iq0nY/5bgkhhBBCCCETjm86Y6v7BPEIJCx/+nPM90kIIYQQQgiZJCzvvo2YryMht1p5w9lItpQplZqHHki4+y75VL3flLSEEEIIIYSQcSOazc7OLtuBT63v13jPyxQK98VJ0TQY40Aisbk56Lp3fuT61JRNG5VZWbE9OiGEEEIIISRaTGIik5iozMpMWLmi/39vcvb2hfmA02k/cjjGXZsS286F3UbGqlJ+/hJFEYQQQgghhEwqynlZKf/+M5lKGXZL7tiRGAcSioHBsNtoHlitzLgxtsclhBBCCCGEXDvegQnoAAAgAElEQVRl5k2akvvCbubs6ox1IGEeCrtNwsoVsT0oIYQQQgghJFbUK4vCbuPs7Y7xGAmFKXwgoZidFtuDXi/4E3sn+hQIIWOhuvX+iT4FQgghZPwoZ6eH3cbZ3RXjFgmG58JuI1OrY3tQQgghhBBCSKzINJqw20hWaxxWtiaEEEIIIYR81VEgQQghhBBCCIkaBRKEEEIIIYSQqFEgQQghhBBCCIkaBRKEEEIIIYSQqFEgAQgOk1mc6JOYCKJ2iA8/JJ+Q8SYkDznlMd2jnOOTuXikcufQqR3/79tf8HHYNbluiaLJ5JjokyCTk8SZBU6Y6LOY1K6TW2QVTLw00ScR0pW9//q7jy6Pz7FivI7ExGr4oL/sIspXpmzIjfgzXeZ11UKdiNx5CdX3fJ3mpTUveOZM6iEJ2akdu+cZJ/psCHHrvbD0visqTiY+N/fY2lRnLHapaTy7eG0/Axn3q8UnViXEYpdufNPvfvLu7kZ0HOpetGpqDHccTM+hgeWnfN5bofI6V07oRbb5kRtKpwVs12Ve945Qp1MeejxRH9tzjYD7cmazTd+exNUZY7hFvHXbH7jtPHTTVLWPaHVxPb1rZLLXfGqvvCoZXIU2Brl61Y5HtEGutMdaeYCvGZAMDgBgFci6SV19TyzT0vVnLMlHbNg7WNYOMMwrjyUXp8Tx7MKxbv0NVwlF1Y+T8ifwLIKYPLdoND1/Hbi7QeIYbCi+oXyubKJPJ0DfZ3t/96eOwaO/xet/d8+seB/t+mmRGLRWvTtQ+ra5J6Z77TnnqBMBwNDpiO2ew0l//ejteQ05ve4fM355xPvHuOvtTTokAUCzOSkWB9W0GfNe+HzZ610ht2hsuj3vyO15R5a93utX2azf03B73pHCPeYYnEcove2FeUdu9/5359Fl/3j65kODyXE86uRhz9h1eumjpxaM2wM2Vqn1/SoOgMQcHYrVO2TaoQEGACT25CgLZkZ/i7r3v/T27kZ84+c/+be4RxEAVHpFRYbrH1OkHG3LqTNHtpxkpYRJRWj4ZPDZ1wdqQudaY3HeWckDgKlLbI3pjmOs07zuj7bnL0oGJ3LVyFUjCzDYg9Swcoahkt3c1h7JILq3TBKDb/kVIrYeHXr+D/3bDbHdrb2uw7V7seFKbPc8mUWV0CbsFnEXLdt2D5TstUawrXCkTeIAiDhyZVI2nUy586nf/nxmwuUr/+en49Bgfv20SFxybuqUEOvqHf0S1fqz3DY7SnNV41snpzCJgNypcv1kZc8DUNtSx+vwqbN6numZ9apDXDOtOxYH1TR2a/fxWBt+S+b1qzeuTW1jY3DQ6MnEbE8Uc8nBHDAnH2hKzks1vj6vY2LOZ9yYkreYVWAnf8VB76pZlrzz2mY5t0Yfq9D+4poZ+veuqnjV4P2jPOvR3qLWt15/eT8SHn9o431TY9sPKwRdTuL6HNd/+eq3LHWh31/ptyWtd//XuvU3XEP8z+36JNQaxFrIVsR2r/PYzZ87NvZhyQJl5E3j406orRPqRGTNVL35gFY/HJcKgeGBveqwoxUoykl4+S61jhlly68Sx8mzjhozymO824TSPP7dRolPVJbMjfGuJ7GoEtqE3aKhdmF7j4SImtmUxbco8g86DCrm4QWqeJ/YGM24r3xz66+ee6Npy2un3nhmcTybD6+fQCJONJqKck3F+B/XnHAegJJPcv0oMhyQphjHbrXK9qdvbX96/I7ntiqBPzA0dc9g22MT0hKgu7o7p939fym5+cLcF66yjb3pv0rqeWFGJPUQJO7YaY07AzvhXBNn2o3H/3JjbHd5+cP/+JUdqfN+9swtX+/+HcQfoyr5nqpkos8iHKGhC4Cs/A6vKAKAMqCTRpfjCA+A+aF3FBF0SxKeLP32Gw7dPtFnMaldH7eIzU2qmsT1BC7q/B+VPHz43XffqNm5PHddXvyK+5O/hvIrysl0AwVqm/tHq+ookKm0T+g5jYe0VNNqyHd2zpnoEwFkg9kZJ7dMEQHs6kofpc8LIX7Mn+08bAAKnvtWwWStjiIkPFl6hH3yEuVpVFgg5DqjWvz9H89JgH337w5ciuNhJnuLhP+oQZOw/Df93hsEH25ostd8at9+SWoVoVPKypdpKhb7vu9dw6S8fzPKmD9RMBy1bj8j1tthAgDoVciawb7ygCb6nlYZvzwya+fwT51ZeZ1Zwz8dujo/7+p8wLJzWWMe0Nte+M2r8rWZf31Orz/aeuOr/WyjCMjEVTd0/cv8tlT/+iD5UN/cP1y64T2rvFcCZMhWW38w+/zqKYM+W5lznjmdcsj7N8mXG4cr6f3Ok+3/S/6Xqr75r55P2SOAAzITrP+YYViezIfa286223e2ef3M9v8lv8mnO4nKuCZJv69/ylFnR8HoHUJEfWNH+h+6NAdEAMhUcWtmXVg7Y7i7S8ar9bNel7hf5Z9YFbRbUldeXpsWiZ1HF7aG7rbkzE62o08Dp3ykF6Hroly3xZK5s23qm1Z5rxRw7S5SctvlOa9fTToggANS5fz9M67+KN2YFFhbJyU3G296rVN91MG4gpZUuZiV1PWr7Lak6C7c7yQv917N+fcO7QERkCFPM/jc/OY81j1GubHp9rXe3z+X8s0jPlU9azP/+pxf9b8lY0+HfqdJ1SYBMrFAY3k682yB1veqo7pFkXE97WHOLeILD375cL60sH5NIkbbJpJbhMuH39kNpM57OOzQCKmnyfL7BuHPg+gRAQaFUxR/tyqxUO/1fIiisc1Wd1Ko7nOPedUpZUUZyvV3atPHbxCy1HPK/IsGR50ZJiArRfHitxILp/g+xINc/Sn+3TbHEav7WnKTmbJbNaULgg7XkExGa/VhobpPavVsXL5MU5I56tgOgDMMlX7iaAWK87Wv3B6fIM0wlPOJd9uvtPGd/o3eGwR/F0g9p8y/OOGotYJjkD9dufFuba7O+xa5Rq96GX0Yru/wZTDIVcnK7r2hNH0s1wQAAl//me2PLWLtyFOk+qeVGv1ot5xRRRgeMAgzFYnANxyxVTa5j56VyJTmJ5T7vXZdt8h1W7ze0XoN83e3a8r8HyTJ1GbZfkSoG0SrCLhGeKsVG9YkFcZvAHtAwaDyk/7KT7x+Dv6dhn02Ip7/wCXmz4ZfegSy1OgOuqEotDbYt59y1FrBAXqV7IFF6ooC38Yoz5ZhykVRJrQIb5FrkobylSkb5vH1H1k3dUitIliFrHg+++KKBN/zlLhOrtbAfdTmOUkGhVMUPyxKKJo5XPTlq9+ybDR5fegil/MbLtRpRD7jBRBZknQ9crPZpm8n9Jwy/9sRR60AMMifonz+Pm2+LqAkIfD1n9h+e0E8ycN1lllqZM7XvLI8RDEn+c4Vj2a/9eZnJw4037s2O8SJAlzLWzsOH7aoFhTf/Q9Lo+4SMNkDCaiR68rAnDAIrhTl8/epgblkt/nZg0KtCL0KuRIMgrTtkKXVLnu5wGtThWyqGu5v3wHDKF2KRL66yrJxEACy1EgHIKKVR/2AOKYBLPYlKRYWGLIl7LIzeVqLq0LT/WOipUAJwOadTzUP5vzyQspOJ1hGzFbgkoM50D/js0bl/iVnvQroSc0tuWt75RyQxIjZcvBOptmmeeHLm3f5DQBgnHqF6H6aRKZ59Akxnaq6lqVbeuWcDNkKkXcybTbNM82Lt9x8fHWi/966nUyvhCRG9Km4UgbOumMtmDGU1pK063JKwez+gL96CBmvNs563YEkJbc22cEKyvcs7C/b5+/pT9yV084CgDlNBXAKkwAES0G9VjWANJYbffADJ4aIZuwJbV15L5zXNkvIVIjJ7mtf5DPtjzR936msF2xgGX5NipAkKo6a2J2X5uzuTdqT15TmnQNI0/c0Zr1kB4BMhZgGQGLOO5mjNtb/KQp/4V6c2j2nb3nJzEAmZivQ7WQaLclrTy3ceUtjnuuyFGK2K4m7vmsZsuU+X7lf536uK2/teW2zhDyt9WmVNGTT7rEkPf3FLWszzzw3LaDNJpJbFDmFI1vhvmWuZ2k0YS8cvpcPXPLEbwHHje4WAUDH0UYDMOMHy/JHLemKfM0uy/P9AMAqkKsCnKjvcdTvt/iURZotxZ843NuoXdmLVNPC11wQq76flD8uscTBvQOb2sExyFWD49Ha73hi9+DLpTeUjLxQ+OoPrK7XbZYa0wCOh6Ff3Pix+aMu7Y7lfvfB0bB3qLwdHADGc1H94vP77Wk/Vo4y+Hs4iii9Tbs5fk09Ss87BTDaYQL0KkzzzrXUQTrteN+iLh4NV4TS3ebqJ5NyRz7o9U5xva1CG75S95fuup92qdU02qdG02nZ+AFfzXvdcF6qaeFqLgivfFtXPN11RbbKN+w1nk8YAcDx4hv93rlKzqLEzQVK9Fk27uGbXL8S0QrALKx7wye7LilKKZ/n+cFq3fY2t90OnYYpT2NYm/PdbnHrIUt1u6P62xr/XMsktXaa/+09zztahMEqbvrYbJLfUDEy+41kPDRYckriAJ3S/dLv4mEwO412xDGQ8CoYdPHoEaFTIt07Bxjjs+FVkvE8daHE/tmAo/Uv5tImifPKiAxBez94sixWISvNkOucYv0lsfKEreqco6YsMZ3x2TJ8uSjahBbxLQJgMpo3HhaqeeiUyFWglZdqDPYmq1R9v/fzZtv2LlcJT6IAunjU9zjq3xsqX5m0IdeV78t0auS6TtpVFPQvZMp03sVkVpardr+cXE9ISBElSQ9OrH5nYGOXe+MuHg09Qtluc9UPknxeMlbr1j9ylfzIFbm+ytb+0aY3nHfHavWbzfbdh5u+n50Torxz9uMjh4cA8GdrT51eevfCUXYXzGQPJPLvSal2/c8V3SYqd4Sbaq3ytAAV8/J9upJ0GSAZDw4Wn5ZqvuAqCpQjlf9TtJuf1Lr+GxhiejMdtW4cBJusrHk0MX0kEpE4qzSm4blXVy24ugq4dL5wl11cPafRNVSg8eztu+zONRmNftWlAI72phyVOZ/OaH3GVSc9mPNMc8ohe+prVzXD3fqHjPPX9so5Gf/CvJbH3E0Qqt5LuU9d1DT2zno1uee5aZ4BAJovX1rq/m9gHbA/h/alXmQmdf4upzWVAcQZuxozt3CqP3TOWp142Xdv+j0N81/isCbjSJBaZD+p3Wvbk7ZcSW9O788O3s9Wv+/MrNcdyEy+PFx6fobL/OWpGTsHZ71kHNyS3g/0ZKrng5O3WYGAmwagW5AByEsYvctS0tFeFkBa4pD/KFw+5bE2QDW082ZDHuv0RALsa5dnrcpyzc2safzyphdsYNX9I2GDOGPPqcyX7CnPnEvf4zWp7pBx9kt2sOr+PYubvAItOSewvk9RJBfuxZz8ErB8aseWTGOSDOAyf9k4Y6dTu69LkzfTCiBv3pHdri1d7TOq/v/yayDy2duC585rmyXRK2yQP9O5cO157c7z85ckBYQH4W9RFFLTT+x217e5n6XRhLtwl5HL92sJ9BLdLQIA9DcfNQO4c/G80VKPo6HG8nw/wMhevFdbNlwTP8jVnfHN9DWyDcs0DyxS6VWexNBj2fQeX8U7Xq7nqlbGfxYAk7DRhPwM9pV7NHolIHDVu60bB6WNn1mLvzP8Vpalz1FWzVfnD9fkiYLhY0tpi1R32lZfqCocedtJxkPm8nZwDMoLtBtu9fyB5xsOC6FLgJLptLnsoKMVKF+RuGFhmIaLazIvqdpdAna1Icj+14Oh64ZdXLdornp7cYKOAazWrf/NVfKO6kYxN384PSeUP5ngHpvrXxfrS7RVfhbsSgXH6E996B3at3/AV/O+I6dN9qoPbJsGxWc/Gg5cpW47/GYhavUtUOo5CQAcAVuK/kXPwpFIia95j9tuR9ZsdjhsWG+ybt3NVV7kNh5V+lThAYBj3XvgFMPvaEfDB0NlF7HtpLV8rtb9vPVbtp6SOEa2+YHk0nSvlwTv4OJaZhkpGLgrqkvvDDebfETPhldJJrDlylvMnw2Aa7CUNkmcX0bEWza9zlf5Hrthv+X5frDJypGwwZ0bCBW19pp7RxqlIioXRZnQIr1FAIDqFgGM7MX7XFckmU6ZSg+Jre1CPY+ikbyIyZ2nqrktISvF80UIfO37lmc7UVlvL8tNTAcAZfEjKcUAhouCaWx16Amp9QXJ1QWu/wY0ZXiLNEl6dAkbveczMFm37uIqeUfNGTF/5CmSDAe5Sh5Zs9mqEo1X24vEjT7AM+u2+Qk4Zfv4bPuTOVnBN0lIUAE2AFDKx5D5fhW7PaoUbz7qyqEAyNK/oSwDYHe2jSmgb+2VAExNlaf73F0Zq7mmW9djlwMS6y6IaEwCAC5NG2xTGf9SdsMzwz1bkr98JkUEsKd/OEWm77rMcsBjc84+NtKRiU9N++KXU50As/Pq2AcAZCZf3nVza6rrWpmra2ZwAJotidc2ouDq/dM5Vkza0xkiufbOfNUOMENbsr3q4Nm2Z2ZbWWBf9wzXBJ16tRPAeas7PTa3LPOeW5ZzMADS1L49u7yJKc2tC54zAzLuufSAlTQkQD24a9EX7t4yss7V0zkAzUOe2XJts//QzwD8Swu8Gh+Yq2tuGswD2vpSG72C0zarCoBeY/HtZ+xklb4ZQGQX7m35jNZXszw9qdi2NakigEPmKSGvOiR58+WUQxLSplz2anxwJk1veSEJkNg9nYHt+eFuUTzF7sKjdvX8fgBTbxq1n4HR/vJFALLN30ku8+7Pk8wW3a7xuZUZieW3siNRBAC9tnyBDEDDUEyW0QivaKGm6n5Pg7uSLS1UpANcp9MwUt+mLFyROBJFAGCUuXerygGIknHAa1+8rfK0xAHly5NGoggAKlX+Sm2It5gnimBQsTIpvlHEWBUt1FTd6+k4odGUzgWAuq4xNUsPOBsEALLcNN8rVSrYMV266Ti3jQc0ym0PeY2c1qnLvqMqYwCT8O451680G36c0uT+x5YDgKJq5DcpTT9OcTcuTUvcMfzLR5RFAHTKQ75bjhSvW7htg4BSsbXEqzJYp1lfwLBAzVkucPI1TsHsKB1+Ryvy85W5ALrFkdClS6oDIJfnzPKtalIpJuHMc5P52QC46pMiB5QtS/TJiFQy/yqKfmtlOwDZ5vu9Gh+UbOldynygtU1o8Kp9j1O5KAqMd9Yq0y1Wl6sBiIYO743UJfdoR6IIAEpV8XJlIQCrFLxnV4xEnCRHFC3W7vimpwuZLuhT5GjrBYDMaUrfHlwyVjP6zAdpc74BoLnHGLLgNueulY/nJOv00x58dNmC8Nfnb/IlymtW/o3EQu+OZe4EI5nGNJI5N51hAWOb/Ym9ltbBWE14l3qJA2DPdFela3oEQCaxwR6GgmkX1/h0OndmJ9sBcPYEd3FtMPljEZBZVs/we0qcmXpzNgBrQhvGxvpCtk93GlbuAOAzomBMktK6n2awq3N20Oe6uU97CUhL8W+vYHW2AgCcxuAEgDQNB6BNcFWTpB/qZwBmT28aAEDfZgfgTPPr2Gua8ejxZY8eX/bosdsLjuY82q3iZPwL878M1hWH++XNZ7wzXve1S+4kM9SbeACAxrTc77PJlgIZICU0eQWu2clWFrjUl/702aw2e8g+GxFe+AhV/wsZnT4Hl0sALjnGUGs389AAA4hrUjt8f2/NSuQBHDInB1SJhblFcRTLC49Wb9d5ANCnj9Zu0fql0ABgurJk+uhZfHDp4zOhrEui8sUVvoWKLHkxANHZNvoEvIwiK6CJgTsjVImAWlm6MNLvwhNFyNbfnbQ+d1I2kgfcomSlDIBxbIulT1Gu0ACQNr43WNXEX/OC6+LJDhFA0VxVll/K0ySsmAoADVfiOJG8oc1hBNJvVOb6Hp2dLS8EYHIaAg6+oVhX5D0Ch4UegPd9uEleygCCo/yPQ3Udk3Ke/mGT+tkA+oSDVgDMPeHm7DG1OGsBTFEW+a3fk84UMoDoaPIarRufclEUCnM1pT5Zq4xVAYAp7JM+nYn/ZEvRJ8lE5Yu+HUSDPUXKJWkyALUN5o2fWI1RLKqdlDQVAGzW0HeHmXbHd9ZsXbf6vtljmYVwUuba14iJ5bR0bJ62us9cZpDq2/mSdt41DrL8Fk2ufixHuWTM22MBIGvmAah3nc07BACKozwgU+47m3cIyJnRuMpralRWFlArKZMAQFB0A6kAOEUzABWfHnhGOlsBkpuhbjMjL1j/n3CCxzYxIOtYrZ/5atcNewflgfPAuhoTYNG/etavrKYwAYCixwYkAmohG2h2qABPNAVc6k9plDryZOoeAV6hmofENHt6HGQq+Dv1PU/MaU8NXu516PxqgKY1Nno1y/KuMquQ9IezeX7X1iwDJOaSV7mbndG6y7pgbZfqaP/0Nf3Tkxjn8pT+H8xqz/YdxBzphY8cKtwIyCgoTCIANHblvepXfOTlACCozP6jUcLcojiK5YXHhckMAEXTlRH1TBLFHqPdcMHZMBx8msepLQIINo7WnSKkbhPg/YVaecM54eRF0VOZJxpsfp/EkFkCgKlMiMaHAIP8swelVqBokaZi3mR9H4UdahwdtuxBh3EPX2kXN/3FsulTS24yU7ZQXbyQDTKkNTxHtw0AslIDayiYzKkydEp1/Q4gXmNOOFdG181t2+tX4heHAEDqHvB9iiDT+VWgTkvc8WPfj6o0G+4Tu/cLtSbHuj+bXWNkH76VLZk7+SZJm9TPBnBVqgOgk/uXaAPwrl5tdkflXr/6PdEgB0R4V2fHtlw0BhE3TElcP29oE05elTyZq3gyXic1LPokGdlTlL5Cu8NkftaIagNXbeD0KtkD2arSvISswDHZ42uyZtyTiCJr5Q31t3L1jfy75xy1Vqmmha9p4XPTVTse0OqjTNs9Q9rXR/rayPf1e3VmklS7+lUA1qZgVUTn5fCf7SeQKOMBwDkJm4PTZg6s6kr9lfHGNcnB+5xdsmteH70RSS1kAs12thcY7ElqBvfCNGzp0u7r1ORNV5lEgOX9e58En6LqGgjs6/2RlBWHMjOPf5Y24+iV6Xt6tQcE+b5e/b5efXZy539lt/pNwBX+wuOIOTSoPRR+MxIzXLv5+f1C7bVXPcaebOpwFiMKdX82P2vEmDtqh5Ss2pzBl5yS6r6wVs9Tlo6pAef6M0W74UnND89ZPzopVHVLhn5x4yHrxsO2F+9LLMuI5UuZc0oA2Pi3bxkHxe2DsXyI2YzEV9YJrae5mibHu31SfY+j/kPHxoO2V9b4tmZ89YzXsxGcVdzeHsn3GMtyUbxYuao/WTeFntJlQlxTkmSURQ+mnOyx13zBfdQi1vJS5Smu8hRXnKt5eSUb/+F0IVEgERkdW7icLVzuGjJo29wsGoz8L46rAoaRhZGX89dGANz8Fxr0+5KvNua0Ab6TaUaAcyoAQOF0dyuQi2nApeEGCm9m9UkAMiFt/OaRjFjCxR8kpxwYTPmMCwgkGAAomN76+k2dgZ8bwVozGYBXGTGrqZ+BZuj+mbKjXeye3hn/mOhaKZyL40rhMicgx/CXGAn2akHG1YIMwDm98UL6z7vZ5sHp/9+lni3pnuAywguPD1YGSEEmSCW+UlPmAEfRY+zFotDPlxwA6sPWBPPWrfuFWhFFc9kXlyekD9fUjj5aN954iQMAmc7Tym08aFlnBFTMy/dqitOVnoqJYMMNXS/IQbEHGH1WjGHpyxOrBXNpk7TxvUH2O8lj6wx2HZLp52rL5qIMkqnDWnWQ32aSNn1kW/KjpCi7Xrhnlek2C4Df+0i81AcAhSnxHHYiB4DChdo3V8S6uYBRZi1Wrl+M9aJoPGvd/leh2i6u+9Ba/z1t/OZtmhxi9WwAKqQDRpvU5ZcerZL/e9eVctPZpgcjLi7EqFwUH2L9/1g39YNNVlSuSvAa3xV+JPc1i3OS1KtLVqpLVgKDXN1ntufbpVqDtXI2WxFyIfChoW4ASNDEq0FvkkSOEZCDBcAj9ODZcaFS5a9M3roAAGquBuu7KQ4efm/3T/79zZ+8Vnc6VPWdIB8CRvqEcoo2YHmCObIzcE80tCql211deINluQwQtXu7/NK/vLkrqRlgdYN5AXuJNXcnKN4ZechizZs1lAc24LSRreMAHB2YEm7Mri1NBUiKnq6UPQ6sntKZlNB1dwK4oZSjZtVRoEBtie4iopF6gy0bwFBS4xg6ocg78zJPbNGLAPYNjfRIjfjCo8eABeBkQiefrjwtAPmBngiLf1ER28/2Pfdh93OfDNRN2pX/wt8it5k3rgLQfT5ggL6X3FkMAO6SUDf6fBrnnK4RBRvu1aR79/dwTGQLBXfGUQ0gRe6ZZ5OvN0oAypYmlcxRjjRvilJgH279bEUuAJPjo4uRd+FVZH0zsXI2IErPf2CuN4X8YM+Zj3/+StXPa5pHm3UxGiwDQOJi384SFZlujrbiUVUZAMHZ1BVkC+vFw1tffrPiF7tfPR74Z2XODBmCDmvut/25G4DsnrlxLNi5HvX6Dn70ATXXhGHScxI336PMBdAntgbdZqD5rd9Xbfj9x8cGgv45WjLXG42LwTCFazqNsM8GBs7seOXNii1v/ev+tiCZzTRmSeBnRb76Pb7ad0N3yu10NoxhQE24ctFEJDT7wSsAsGFFks8sEULoZlVXKOWuRrkW45Ukk9mi+3UvTwfCjIO6dNkAoGD2TaF7sXDG/bt2b/j9hx9fDOiuGoHrJ5CYyRQDsAtbD47nwygajbzJb1CLwNVfAoCilGDtOa3H3mqyCYDQ3bbr8JXge7WrjnpHDk4m4jUHVZcuzv+VGZBbfjDL02Inv7BmiggwOy/k7BvUeG255IVeBjL+pdntke5+7HoztSKAXcZ5R7mIG+2SLz+WgANdU5p9f81O631aDnApf9+UdcnptTdRe6k7Z9fV4Wrg3jQWgOJQV1IzuNUzB4H+5akcwO7pVHJApjqehdbkzh+oAVH749M3N3uPn5Y0vQNZOy96d6rSXBqcPuT0vS3ijKMmBr4BZMQXHr0k2yoAjuRfnTkRWHoAABE1SURBVJ8RYgtrwQxLJnCoc+4vL03nvB95YXpje87R0QvEo7PY/v/zTkGCwAnvtlgn6djJ8LfIbWp2nhrA3uNNoWNINo9drwJE8dl3hup7vO7mIFf3V+vI28VdP+Js6vNsw/P1ewcKD01c8aXPsvW4yAEVtw4vuOkuVDVdHS4JSKZz5o2V1k2BtR+z2YopAKRN/2OqbvP6qnm+4RNL8CIgACjyS7SbkwHe8cRuc0Pwh63t/Q+MHUN8R+OR//w0RNYaHWXuDQCw9aDZOJ4P5SDX2uPX3CSZmh11ABh5ZpBAfvDghy1tPOCwna49fiygwJC+RFnCACbh2Q+tpuELMdm2f8DXiMjKUJXEc+QSe7OyQgWYhHXvW3wGgAoOY5O56tRY7izXyRnNfklAMp5zGADoZLODfeR03ZHDV3jTFeMbfzzcEWyDKCkzpwJA1XHLKJFt7EX9bOB03bGGIUB0Xvn82L7Almyd6p5pAKTtdRZ3+G2yV1VZNg4hy68oO1tVngwIjop3zQbv8dOi2NNhqTzi3d022nLRxCQ0V5VHwyXPIUXReGroid9xVSG210+TpwPo5LedvtazjE+SFIwdAud3aib7kT4AyEoNHZl0NH95FZhxZ2ZayE16jh95v9VmunLl3d1HTkf/8rl+ujbpNOVz+ZpzqDttzTFYh1cM8VkWJ2I9RwfXfeG5W65ke4krfYML2Kej/hPLRpPXGiUiWnlwAJuoWF8Ypp2ID1XOEH1i4l6bEsBNmuAVOoeuzv9md0axTkiCrG1Qc0AEZPyWnNNeC285s+eef8mS9ZKdfaFpyc8ZMY0B72RcKxM/fdPZ1V49VXqNt/79Vc8DJzKAayIjd8np/puOrB1rYTU7vW91n36fU/t0Q2GqXJzqql1V9/3Xwi9D77J/1XQr267Z5fdrefvTc7XNXyYfGpy++th09yJ3EnPeCQ5YPrPrMc+G6QlODMr3mIHEAdc62UkzBx4zTt9lUwGiXnUthd+welbPT248M32XLfnRk0tZRryJATwLn7Epl9eObKk52pb1Epc1stiZ51pY1dAzs72+94gvPGps6w9Sp+zrZQ51ZuZ1ZWR7Hh7vb5zVt/1ycMFj3aqdF7N2XszKVIgqDK9ayG+JVVkk+Es59cDpea95XlXdTgDY077sqLtEYPnp0i+ib1Wbs/P4rL2eHy4BgPzXTct2hXoyI7hFblmrbl3wq8Nn3z7e8HjO0hCZAKOu+LbD8J5Qa3Y8sXuAVSBL4VmnTKc8NLx29jxlRZ1jGy8+//bAdjVYT/aSq5OZTJJvk4dQ+455u6c7gmtWwOrP+uv/5vqFYuOTSZ613gLXHZP+8/3+KvfEgqodj2h9CiQm4e4d/UWpiqwEmAYdNf0wAcX52vULRuaALJrPsMfEhjZ74Q57lgIcj1YRYGSFGqneP5Epix9kK97mttvFjfvNG105p/u6FFUrg98tAGBUpd9xGN/mttsd5e+Zq7+TmOXfVJmQrAMGAKDHeMWEmdfcv0VZfJsi60NH66BQ/Fp/ltozl8BsdfU90U9d0jJUWucpArpyfq9F3NwLvblc4ks+cQAji5257ydQWsDmj165JyJIxWOKdvMKsekTR8M5rrCN87rh0KUot98XsCRcbKk0FcWiYb9QZ+SLX+fdF+U5gaJ8tiz6XQ59aSs+ZYXXEmbuxb8Y2YZvaIK2meoSE9wT4Q90tVkwJ+hc6tHILVCVtPE1vOOJtwZGVlILTD4RiThJXsuzASeCdIdUFhcpi94T6jr55Tv4XBWMdpgYVKzQpJ+wbvQplapKVgsN1XxVv1D6354sy7M2HJvBlo9sGW25KJKEFmWuFV5CcSa3/RxqTpjrTiFd7n6EWLUs3yk1BI0U5qo3HDM/24fKg+aqw+7LB5iKNcnF7nnFI86E45Ikhao/e9bXc91jz8KXWdNUP8wN2SO05dPdZkD9rdtGWfgoWacBzADAGRvasTAzujO7fgIJyHLvTarV27addtSZRxbHKRxb6MhJ/is7ikH3KctMZ4rbxDbe81cGuYlMyUJ1aX6IWRSybns8p3dXkw1TM9cWzQx6cP/IQZIj9CwErAxmp3scdqqcf2xa348y2vwnGpJ1rsmz512e83qn9hDPNItgGXGVrv9HN53PVvu+dxyKZofvh70mMiq4lqliEr7csshecGHariFVs5Nxd84RwrROsNN7nr4459WA47IpZ15dMuNQR9rOAbbR6b6iOxOH1qRfXn7DyOCpVI0d0AJ4LPWKO2XKr6xKmr5rCIDgP2VTzGlaX7h1cHVH+h961EcdrnWRxQKtZfWMq6v13lVDQmaydVWf+ryTcd98GbJV3P3TL62ZdTXJb6bXyC48es7seWf2aTJedT0hwb/xocyshgP6jD0d+r02uetUU+X8Y9P6H511MfNapibRJnz3Ju7X7U6olA/O1wSrOZGZhJGzcp/NyMrrY2s4ZbodjF9jV+9oT2Ykt8hl1h2PPHR4859a3tx3ZelDwRM5gOmJrzzF139m++M5sY6HwQFWgeLZyvLbvd6IjLriUaR/at9+SWq1AwxyU5jyAk2Jjlv3juAbSEgmu/+iYCYh6ArKQdYd6+Hhzm5UXpGcnt2wHLlNjrpBqbbTUQuwChRNV37/Lm2h7+wrugLdx2rzL044aq0wOKBTykqyVOvvSuj+n4GywGhdo1lfriw+aq8868mrGRTqFT+8Qz3KstbuD34P3B+5ykGh9D2z/2K6mPnwd7PPvNZ8BQDvjM2EpnOTqrWWqjqhuk8aWZrNPqYaaCFgtWCvd4reu41Px5TrZfUmqZV3f306JYrTlOW3a/ODT3qTvOLeeV/samkTExauWnpHsNCVzU2qmWat/itfdcX9astKZErzE8oWqsZhpg02I3HH97m6I/bfXxBP8jAI7gfp4QK2aM5YunCo9IqyFOGkGQbPc6tXyUpuVFYs04SaoGbOXSvva9m3vweA08a5XgvXJkX78qPMss+4qiuSIWjyiULESTLqZwMLi27Lbz/WYJHPXLJsddAq5+mJOx6wbK3jq/th4JGvV6xflVioF6pPBGw5RfviE8qSI7bKL8V6u3uZ50K94oHFbMkC78cu+nJR+IQW8S2KlCy3OLE62br9lFgrwCBAr5KVL1JX3MrU7rIEDySgLH40seqwtbLZnWO7Tsw08mKKPBOOR5KU589mDN1iq/dtT2HK8hNKc0JXatuOHtndDKy6477sUXatXLTyybPvvnF2jEVAmdN6cWyfDFT9cf3tW/897GYzP/ogVke8vvAn9obfyItr5enlM758NSOOvU8JIWGpbr3f52dn85+e/N7nHalzfrbnqRXhp08jMdL1/m/37e+DruDercUhIzjy9XSlbve/HrIhad6GZ++IskaVkK8kvuXNH721s1H91Ns/LRstkAAgfLHvJx90gZn25HOrb/MKTK7c8+2wh7l+xkgQQsgkIc8u2fCMGr0dW7ccvDrRJ/O1YTrTcLAPYJJXL6MogviyNH9w3AYg8/Zo+2UQ8tVk/+Ktd3Y2Ys4za9aEiSLguLKvvguAZvHNt0U/t9N11LWJEEImC0Xuk08/3/rrl/cf+Oesab99Mmcs64GSyFha3j/QdvZiV9uAE0zCHd/91l3UCETczKc/PXK4o/f0JZsgQr+k6JmlAUucEvI1dHV/5T+/akfeLS+O9nrq+Pzj2i+HzlwYtDqgyVj8/H03juFQFEgQQshYTL3vpe91XH5796tvb834h5+tSgn/CTImtt6TX1zpSUjIvCXnsaLF1z6OlnyFcBfPGhsG5DPTMu8uvuWOmbQIDiGApfHtf/7pFVvevP/z64eyRtuwt9147IJcN3Xmg3csvXvBKHM/jYYCCUIIGRtVzlO/fsi5pW35cooi4ki/7Gf/smyiT4JMTqn3rXvivok+CUImF23O0nsesqc9/XhBmNbb/O88sf2aj0aBxOSVmlHfmDHRJ0EIGYU86Za///ktE30WhBBCiIdqXtnPol8ZYYxosDUhhBBCCCEkahRIEEIIIYQQQqJGgQQhhBBCCCEkahRIEEIIIYQQQqIWy8HWpXcXXtkaw/191fgvjksIIYQQQsh1i1okCCGEEEIIIVGjQIIQQgghhBASNQokCCGEEEIIIVGjQIIQQgghhBAStRgHErKEhLDbSDZbbA9KCCGEEEIIiRXJag27jUyjiXEgIZ+SEnYboeNibA9KCCGEEEIIiRXhQvjiulw/LdaBROqUsNvYP/40tgclhBBCCCGExIqt9i9ht5Hrp8Y4kGCmTQ27jXX/h8L59tgelxBCCCGEEHLthNZW24e1YTeTT5se40CCvTU/7DYSL/T/y78Kra2xPTQhhBBCCCHkWvBnW/o3bpIER9gt2duWyZzWWI5YEIeGOr+7Fk5n2C1lSkXCvcUJ3ypW3nSjTKmM4TkQQgghhBBCIicJgtDWbtv3ka32Y8kRviQPuXzmBx8rYnsSTFKSatHN/MlTYbeUBIe1Zr+1Zn9sT4AQQgghhBASV2z+UkaXHPt1JLQP3BfzfRJCCCGEEEImCe1DjyAeC9Kpl9+hWrI45rslhBBCCCGETDj21oKEFd9EnFa2TnpyLWSyeOyZEEIIIYQQMmFkMt26n7j+G5dAQrVgvvbhh+KxZ0IIIYQQQshE0T68RpVzs+v/cQkkAOieekK94s447ZwQQgghhBAyztQr7tQ99YPhH+MVSEAmS/6HZ5QZafHaPyGEEEIIIWS8KG/KuOF//cR7/ELcAgmA0WhSX/kPJu/G+B2CEEIIIYQQEm/qO7+Rum2rTJvg/cs4BhIAhAtVFQsuvL94CY29JoQQQggh5Pojk2kffihl4z/J1Gq/v8R4QTpfwrEv/3RRNl3143+bylwceutte91n8TwcIYQQQgghJGbURXcmPv6Y8sY5Qf8a10DC0mMDMDs1CQr97JSNG7gjd5nfrxEav4ho5W1CCCGEEELIuJMp5MolixMfLGELbxtls7gGEv7YZQXssgLRYuGOHOM+P+m8elXs6XV291BcQQghhBBCyESRKZVy/RRGnyqfMYO9ZQm77DZGqw37qXENJFwYrTZh1V0Jq+5y/9x5eOPvWnoAAJn3PrxhaeL4nxIhhBBCCCEkKvEdbB2R6Xf8eDkFD4QQQgghhFxPJkEgAcxcMFMPAAmZsymiIIQQQggh5DoQ10DCzPMAwMpH3Uo0Hzt8oQfA7Hn3TI/n6RBCCCGEEEJiJI5jJPjmj/6bA9ilC1KCb2BqOfxOY9/58709PDDlxmcevUUXv7MhhBBCCCGExE4cAonLf/uvM+eGTH/7nwHjELSPLCm+KcSGlqtXjrXYdFNS7ypcunrxTN2k6GZFCCGEEEIICU/mtF6M8S7P/n7pZ38Cc0O27q7/Z+mj37ox/NRRhBBCCCGEkOsCk5Du+k8cAglCCCGEEELIV9RwIEHdiQghhBBCCCFRo0CCEEIIIYQQEjUKJAghhBBCCCFRUwDS6FuIvInnAFanVkWyQ1kszooQQgghhBAyqYWc/tXZd6Ln3G67aZc0HGgw31Tc8GhS9n3JNA8TIYQQQgghX28yp7Uj4Jec6dSLfZ27QnzkdkXayzNzZ4dYrppaJAghhBBCCPnK8p7+1S+Q4PqOPmYaPDHqx6fKZ/4pbeHsYAMsKJAghBBCCCHkKyvk9K/2lv/b3h2jIAxEURSdwoB7cW9uxB24Ca0sLe0sbRVBUAmIKIoSjdZjkwQScOCc/sNrb/VHVRURQsjf++Fx++xgGAAAkIA4JMrVeTeud7h8bibXDgYBAAD/LwqJYj17vGqfFtPbofU9AABAAqKQuF/mTW4XxSlvdw0AAJCEKCTer1Wj47J4tDoGAABIQxQSn4rfdAAAACH8hEQvGzQ7zvqtjgEAANLwBbBq1U8oFSwgAAAAAElFTkSuQmCC;" parent="1" vertex="1">
                    <mxGeometry x="260" y="600" width="428" height="112.31" as="geometry"/>
                </mxCell>
                <mxCell id="GJBX5-q9BA4gX0n_ihJw-7" value="&lt;font style=&quot;font-size: 10px;&quot;&gt;RoutePresenter&lt;br&gt;&lt;/font&gt;" style="shape=note;whiteSpace=wrap;html=1;backgroundOutline=1;fontColor=#000000;darkOpacity=0.05;fillColor=#FFF9B2;strokeColor=#000000;fillStyle=solid;direction=west;gradientDirection=north;gradientColor=#FFF2A1;shadow=1;size=20;pointerEvents=1;fontSize=11;" parent="1" vertex="1">
                    <mxGeometry x="260" y="570" width="350" height="30" as="geometry"/>
                </mxCell>
                <mxCell id="GJBX5-q9BA4gX0n_ihJw-20" value="this.#pointEditComponent &lt;br&gt;= new &lt;b&gt;&lt;font style=&quot;font-size: 12px;&quot;&gt;&lt;u&gt;PointEditView&lt;/u&gt;&lt;/font&gt;&lt;/b&gt; (undefined, this.#offers, this.#destinations);&lt;br&gt;&amp;nbsp; &amp;nbsp; this.#pointEditComponent.&lt;b&gt;&lt;font style=&quot;font-size: 12px;&quot;&gt;&lt;u&gt;setPointSaveHandler&lt;/u&gt;(this.#handlePointSave);&lt;/font&gt;&lt;/b&gt;" style="ellipse;whiteSpace=wrap;html=1;shadow=1;strokeColor=#000000;fontSize=10;" parent="1" vertex="1">
                    <mxGeometry x="-975" y="790" width="415" height="130" as="geometry"/>
                </mxCell>
                <mxCell id="GJBX5-q9BA4gX0n_ihJw-32" value="" style="edgeStyle=none;html=1;fontSize=9;entryX=1;entryY=0.5;entryDx=0;entryDy=0;exitX=0;exitY=0.5;exitDx=0;exitDy=0;" parent="1" source="GJBX5-q9BA4gX0n_ihJw-34" target="GJBX5-q9BA4gX0n_ihJw-40" edge="1">
                    <mxGeometry relative="1" as="geometry">
                        <mxPoint x="-590" y="1150" as="targetPoint"/>
                    </mxGeometry>
                </mxCell>
                <mxCell id="GJBX5-q9BA4gX0n_ihJw-51" value="&lt;span style=&quot;background-color: rgb(153, 204, 255);&quot;&gt;handlePointDelete&lt;/span&gt;" style="edgeLabel;html=1;align=center;verticalAlign=middle;resizable=0;points=[];fontSize=11;" parent="GJBX5-q9BA4gX0n_ihJw-32" vertex="1" connectable="0">
                    <mxGeometry x="0.2173" relative="1" as="geometry">
                        <mxPoint as="offset"/>
                    </mxGeometry>
                </mxCell>
                <mxCell id="GJBX5-q9BA4gX0n_ihJw-34" value="&lt;b&gt;#handlePointDelete&lt;br&gt;&lt;/b&gt;&lt;span style=&quot;font-size: 10px;&quot;&gt;метод #handlePointDelete предназначен&lt;br&gt;&amp;nbsp;для обработки события удаления (возможно, &lt;br&gt;когда пользователь кликает кнопку &quot;удалить&quot; или &quot;отменить&quot;&lt;br&gt;&amp;nbsp;в пользовательском интерфейсе), убирая компонент из DOM и выполняя другие связанные задачи по очистке и уборке.&lt;br&gt;&lt;/span&gt;&lt;font style=&quot;font-size: 11px;&quot;&gt;this.#pointEditComponent.setDeleteClickHandler(this.#handlePointDelete)&lt;br&gt;&lt;/font&gt;&lt;br&gt;&lt;br&gt;&lt;font style=&quot;&quot;&gt;&lt;span style=&quot;font-size: 10px;&quot;&gt;&lt;br&gt;&lt;br&gt;&lt;br&gt;&lt;br&gt;&lt;br&gt;&lt;br&gt;&lt;/span&gt;&lt;br&gt;&lt;/font&gt;" style="ellipse;whiteSpace=wrap;html=1;fontSize=14;" parent="1" vertex="1">
                    <mxGeometry x="-360" y="1020" width="420" height="310" as="geometry"/>
                </mxCell>
                <mxCell id="GJBX5-q9BA4gX0n_ihJw-35" value="&lt;b&gt;RoutePresenter&lt;br&gt;&lt;br&gt;&lt;br&gt;&lt;br&gt;&lt;br&gt;&lt;br&gt;&lt;br&gt;&lt;br&gt;&lt;br&gt;&lt;br&gt;&lt;br&gt;&lt;br&gt;&lt;br&gt;&lt;br&gt;&lt;br&gt;&lt;br&gt;&lt;br&gt;&lt;br&gt;&lt;br&gt;&lt;br&gt;&lt;br&gt;&lt;br&gt;&lt;br&gt;&lt;br&gt;&lt;br&gt;&lt;br&gt;&lt;br&gt;&lt;br&gt;&lt;/b&gt;" style="shape=note;whiteSpace=wrap;html=1;backgroundOutline=1;fontColor=#000000;darkOpacity=0.05;fillColor=#FFF9B2;strokeColor=#000000;fillStyle=solid;direction=west;gradientDirection=north;gradientColor=#FFF2A1;shadow=1;size=20;pointerEvents=1;fontSize=11;" parent="1" vertex="1">
                    <mxGeometry x="324" y="802.59" width="300" height="497.41" as="geometry"/>
                </mxCell>
                <mxCell id="GJBX5-q9BA4gX0n_ihJw-40" value="this.setDeleteClickHandler(this.&lt;b style=&quot;background-color: rgb(153, 255, 204);&quot;&gt;_callback.deleteClick&lt;/b&gt;);" style="ellipse;whiteSpace=wrap;html=1;shadow=1;strokeColor=#000000;fontSize=10;" parent="1" vertex="1">
                    <mxGeometry x="-980" y="1110" width="415" height="130" as="geometry"/>
                </mxCell>
                <mxCell id="GJBX5-q9BA4gX0n_ihJw-41" value="&lt;b&gt;&lt;font style=&quot;font-size: 12px;&quot;&gt;destroy&lt;br&gt;&lt;/font&gt;&lt;/b&gt;выполняет некоторые действия по очистке, которые, вероятно, предназначены для удаления компонента из пользовательского интерфейса и выполнения дополнительных задач по очистке.&amp;nbsp;&lt;br&gt;&lt;br&gt;&lt;span style=&quot;background-color: rgb(102, 255, 102);&quot;&gt;&lt;a href=&quot;https://vscode.dev/github/GermanBurdin1/big-trip/blob/master/src/presenter/new-point-presenter.js#L77&quot;&gt;#destroyCallback&lt;/a&gt;&lt;/span&gt;" style="ellipse;whiteSpace=wrap;html=1;shadow=1;strokeColor=#000000;fontSize=9;" parent="1" vertex="1">
                    <mxGeometry x="-280" y="1190" width="260" height="120" as="geometry"/>
                </mxCell>
                <mxCell id="GJBX5-q9BA4gX0n_ihJw-43" value="&lt;br&gt;&lt;b style=&quot;&quot;&gt;#pointNewPresenter.init&lt;br&gt;&lt;span style=&quot;background-color: rgb(102, 255, 102);&quot;&gt;(callback...)&lt;/span&gt;&lt;/b&gt;" style="ellipse;whiteSpace=wrap;html=1;shadow=1;strokeColor=#000000;fontSize=9;" parent="1" vertex="1">
                    <mxGeometry x="350" y="1150" width="260" height="120" as="geometry"/>
                </mxCell>
                <mxCell id="GJBX5-q9BA4gX0n_ihJw-47" value="&lt;b style=&quot;&quot;&gt;&lt;font style=&quot;font-size: 10px;&quot;&gt;routePresenter.createPoint&lt;br&gt;(&lt;span style=&quot;background-color: rgb(153, 255, 153);&quot;&gt;&lt;a href=&quot;https://vscode.dev/github/GermanBurdin1/big-trip/blob/master/src/main.js#L26&quot;&gt;handleNewPointFormClose&lt;/a&gt;&lt;/span&gt;);&lt;/font&gt;&lt;/b&gt;" style="ellipse;whiteSpace=wrap;html=1;shadow=1;strokeColor=#000000;fontSize=9;" parent="1" vertex="1">
                    <mxGeometry x="720" y="1150" width="260" height="120" as="geometry"/>
                </mxCell>
                <mxCell id="GJBX5-q9BA4gX0n_ihJw-48" value="&lt;b&gt;&lt;font style=&quot;font-size: 12px;&quot;&gt;changeData&lt;br&gt;&lt;/font&gt;&lt;/b&gt;&amp;nbsp;передает данные user action, update type и point&lt;br&gt;Route presenter передает функцию new point presenter, а тот в свою очередь вызывает ее с аргументами&amp;nbsp;" style="ellipse;whiteSpace=wrap;html=1;shadow=1;strokeColor=#000000;fontSize=9;" parent="1" vertex="1">
                    <mxGeometry x="-280" y="860" width="230" height="70" as="geometry"/>
                </mxCell>
                <mxCell id="GJBX5-q9BA4gX0n_ihJw-49" value="&lt;br&gt;&lt;b style=&quot;&quot;&gt;&lt;span style=&quot;background-color: rgb(251, 251, 251);&quot;&gt;new PointNewPresenter&lt;/span&gt;&lt;span style=&quot;background-color: rgb(102, 255, 102);&quot;&gt;(this.&lt;a href=&quot;https://vscode.dev/github/GermanBurdin1/big-trip/blob/master/src/presenter/route-presenter.js#L88&quot;&gt;#handleViewAction&lt;/a&gt;...)&lt;/span&gt;&lt;/b&gt;" style="ellipse;whiteSpace=wrap;html=1;shadow=1;strokeColor=#000000;fontSize=9;" parent="1" vertex="1">
                    <mxGeometry x="350" y="890" width="260" height="90" as="geometry"/>
                </mxCell>
                <mxCell id="GJBX5-q9BA4gX0n_ihJw-30" value="" style="edgeStyle=none;html=1;fontSize=9;entryX=1;entryY=0.5;entryDx=0;entryDy=0;exitX=0;exitY=0.5;exitDx=0;exitDy=0;" parent="1" source="GJBX5-q9BA4gX0n_ihJw-49" target="RupRjQCE6EZYwhgRssD4-1" edge="1">
                    <mxGeometry relative="1" as="geometry">
                        <mxPoint x="300" y="832.2792941176472" as="sourcePoint"/>
                        <mxPoint x="55" y="825.085" as="targetPoint"/>
                    </mxGeometry>
                </mxCell>
                <mxCell id="GJBX5-q9BA4gX0n_ihJw-50" value="&lt;span style=&quot;background-color: rgb(153, 204, 255);&quot;&gt;&lt;b&gt;&lt;font style=&quot;font-size: 12px;&quot;&gt;changeData&lt;/font&gt;&lt;/b&gt;&lt;/span&gt;" style="edgeLabel;html=1;align=center;verticalAlign=middle;resizable=0;points=[];fontSize=10;rotation=10;" parent="GJBX5-q9BA4gX0n_ihJw-30" vertex="1" connectable="0">
                    <mxGeometry x="-0.4638" relative="1" as="geometry">
                        <mxPoint as="offset"/>
                    </mxGeometry>
                </mxCell>
                <mxCell id="GJBX5-q9BA4gX0n_ihJw-36" value="" style="edgeStyle=none;html=1;fontSize=9;entryX=1;entryY=0.5;entryDx=0;entryDy=0;exitX=0;exitY=0.5;exitDx=0;exitDy=0;" parent="1" source="GJBX5-q9BA4gX0n_ihJw-43" target="GJBX5-q9BA4gX0n_ihJw-41" edge="1">
                    <mxGeometry relative="1" as="geometry">
                        <mxPoint x="55" y="1135.085" as="targetPoint"/>
                        <mxPoint x="260" y="1250" as="sourcePoint"/>
                    </mxGeometry>
                </mxCell>
                <mxCell id="GJBX5-q9BA4gX0n_ihJw-44" value="callback" style="edgeLabel;html=1;align=center;verticalAlign=middle;resizable=0;points=[];fontSize=14;labelBackgroundColor=#99CCFF;" parent="GJBX5-q9BA4gX0n_ihJw-36" vertex="1" connectable="0">
                    <mxGeometry x="0.1616" relative="1" as="geometry">
                        <mxPoint x="41" as="offset"/>
                    </mxGeometry>
                </mxCell>
            </root>
        </mxGraphModel>
    </diagram>
</mxfile>
